<svg xmlns="http://www.w3.org/2000/svg" xml:space="preserve" fill-rule="evenodd" stroke-linejoin="round" stroke-miterlimit="2" clip-rule="evenodd" viewBox="0 0 24 24" width="24" height="24">
    <style>
        path { fill: #000000; }
        @media (prefers-color-scheme: dark) {
            path { fill: #ffffff; }
        }
    </style>

    <path d="m17.614 5.713.032-.032 5.636 5.636-.865.864h-1.332v6.138H2.812v-6.991l-1.224 1.224-.87-.87L6.72 5.68h10.895v.032ZM7.279 7.97l2.002 2v7.126H7.279v-3.052H6.056v3.052H4.034v-6.99l2.022-2.022v3.226H7.28v-3.34Zm4.213 4.212h1.37v1.77h1.222v-1.77h2.381v1.77h1.222v-1.77h2.175v4.914h-9.359v-5.902l.989.988Zm5.443-5.3h-5.327l2.68 2.68h-1.729l-2.68-2.68H7.92l4.1 4.1h5.375l-2.68-2.68h1.73l2.68 2.68h2.091l-4.1-4.1h-.182Z"/>
</svg>
