<?xml version="1.0" encoding="utf-8"?>
<svg xmlns="http://www.w3.org/2000/svg" xmlns:xlink="http://www.w3.org/1999/xlink" xml:space="preserve">
    <!-- Company Logo -->
    <g id="HomeSteadStudioLogo" xmlns="http://www.w3.org/2000/svg" xml:space="preserve" fill-rule="evenodd" stroke-linejoin="round" stroke-miterlimit="2" clip-rule="evenodd" viewBox="0 0 300 101">
        <!-- Color #212529 -->
        <path fill="currentColor" fill-rule="nonzero" d="M177.631 46.644c.183-.03.37-.056.558-.083 1.393-.197 2.973-.42 3.71-1.7.35-.608.402-1.347.145-2.083a3.555 3.555 0 0 0-1.993-2.082c-1.583-.622-3.364-.203-4.74.232-3.12.986-8.855 3.742-10.552 7.816-.697 1.674-.613 3.373.25 5.049.823 1.6 2.158 2.842 3.45 4.041l.482.45c1.409 1.323 2.78 2.796 3.27 4.598.456 1.684.15 3.68-.911 5.93-1.31 2.779-3.496 5.006-5.253 6.635-1.994 1.848-3.794 2.691-5.207 2.442-1.315-.234-1.88-1.315-1.912-1.377-.016-.029-1.548-2.911 4.616-7.528.213-.16.432-.315.65-.47.769-.545 1.563-1.109 2.148-1.891.73-.98 1.138-2.56.308-3.715-.751-1.044-2.164-1.249-3.23-.988-1.114.271-2.035.961-2.884 1.645-1.208.972-1.788 1.906-2.67 2.827a2.67 2.67 0 0 0-.176.107c-.297.2-.615.398-.965.6-.616.334-1.295.652-2.129.995-.406.152-.83.287-1.284.408-.354.08-.725.146-1.117.2a7.558 7.558 0 0 1-.606.028 12.041 12.041 0 0 1-.9-.06 9.672 9.672 0 0 1-.653-.145 12.598 12.598 0 0 1-.915-.32 9.159 9.159 0 0 1-.32-.162c-.164-.106-1.063-.673-1.23-.797-.186-.154 1.225-1.033 1.702-1.542a66.463 66.463 0 0 0 5.191-6.237c1.308-1.792 2.952-4.187 4.079-6.82.562-1.312.88-2.675.92-3.941.013-.435.014-1.082-.131-1.666a4.358 4.358 0 0 0-.197-.71c-.163-.443-.372-.953-.688-1.384a5.972 5.972 0 0 0-1.166-1.204c-1.306-1.018-3.289-1.32-5.05-.775-.726.225-1.45.59-2.15 1.082-.73.512-1.29.995-1.767 1.519a20.868 20.868 0 0 0-2.372 3.214c-1.432 2.36-2.538 4.972-3.285 7.761-.733 2.736-1.041 7.88-1.041 7.88-4.061 4.573-10.008 6.761-10.015 6.763.02-.053.823-1.814 1.207-2.616.405-.847.825-1.724 1.215-2.598.795-1.784 1.696-3.805 2.3-5.89.347-1.192.69-2.464.742-3.748.045-1.052-.046-1.884-.285-2.617a5.929 5.929 0 0 0-1.426-2.342c-1.176-1.172-3.022-1.542-4.94-.986-.304.088-.61.195-.926.323.335-1.887.242-3.337-.295-4.563-.451-1.031-1.239-1.887-2.16-2.349-1-.501-2.064-.678-3.073-.513-.874.144-1.749.495-2.663 1.071-.098-.806-.387-1.5-.863-2.065-.775-.924-2.929-1.912-5.183.358-6.876 6.925-11.373 8.324-11.373 8.324-.32-2.705-1.927-6.127-4.255-7.561-2.513-1.548-5.745-1.756-8.435-.542-2.112.952-3.71 2.647-4.994 4.18-1.339 1.595-2.526 3.41-3.631 5.548-1.877 3.63-3.006 7.286-3.357 10.865-.232 2.365-.081 4.37.46 6.127.667 2.16 1.953 3.927 3.622 4.976 1.324.831 2.923 1.228 4.592 1.18a10.2 10.2 0 0 0 3.472-.736c2.272-.91 4.386-2.546 6.391-5.066 3.588-4.51 5.647-11.866 5.647-11.866.073-.347.142-.674.325-.913.124-.163.307-.292.508-.434 2.439-1.726 5.41-2.259 10.174-6.865-.377.364-.41.964-.615 1.438l-.178.413h-.001a169.034 169.034 0 0 1-2.949 6.4 350.283 350.283 0 0 1-3.073 6.157l-.19.373a331.387 331.387 0 0 1-2.342 4.538l-.075.142c-.114.213-.23.434-.334.662-.38.835-.456 1.536-.246 2.273.32 1.129 1.467 1.923 2.666 1.87.8-.04 1.57-.435 2.06-1.054.152-.192.342-.433.507-.681.322-.484.617-.984.84-1.364.478-.818.921-1.65 1.409-2.576.506-.957 1.017-1.912 1.527-2.867.67-1.254 1.341-2.508 2.002-3.767.24-.457.479-.915.717-1.374.873-1.675 1.775-3.409 2.736-5.063a41.44 41.44 0 0 1 2.702-3.994c.444-.562.923-1.103 1.414-1.6.214-.2.44-.392.68-.58.222-.16.805-.567.65.165-.09.524-.21 1.067-.356 1.606-.648 2.198-1.527 4.35-2.301 6.165v.002l-.015.03c-.471 1.09-.972 2.191-1.456 3.256-.188.414-.377.828-.563 1.243l-.285.63c-.237.522-.472 1.045-.707 1.567-.169.375-.335.75-.495 1.128-.325.77-.386 1.469-.183 2.134.349 1.144 1.478 1.927 2.665 1.866.95-.051 1.778-.587 2.395-1.55.23-.357.454-.748.727-1.264.42-.796.842-1.617 1.256-2.439.188-.373.373-.748.558-1.123.576-1.166 1.173-2.37 1.829-3.506.247-.409.487-.77.727-1.092.128-.156 2.831-3.492 3.552-3.011.722.481-.187 2.644-.346 3.225-.362 1.224-.845 2.533-1.52 4.118-.665 1.527-1.389 3.058-2.09 4.539l-.571 1.21c-.1.215-.2.428-.295.642l-.098.225a2.89 2.89 0 0 0-.07.16c-.083.195-.17.405-.242.626-.288.888-.429 1.655-.444 2.415-.024 1.164.35 2.27 1.029 3.034a4.31 4.31 0 0 0 2.36 1.381 6.217 6.217 0 0 0 1.495.13c1.23-.037 2.479-.394 3.928-1.123 2.524-1.273 8.584-5.907 8.584-5.907s1.475 2.069 1.85 2.36c1.046.81 2.367 1.398 3.924 1.747 1.421.318 2.91.35 4.426.093.02-.004.042-.01.063-.012-.233 1.121-.748 2.236-.63 3.306.215 1.956 1.025 3.655 2.28 4.784 1.546 1.388 3.522 1.73 4.905 1.774a10.922 10.922 0 0 0 1.424-.051c5.144-.525 9.141-4.068 11.588-6.95 2.584-3.043 4.225-6.172 4.877-9.3.775-3.711.053-7.534-1.93-10.225-.802-1.087-1.805-2.012-2.775-2.905-.954-.878-1.94-1.787-2.708-2.834-.079-.107-.163-.23-.165-.324-.002-.105.092-.239.18-.355a10.926 10.926 0 0 1 6.95-4.16Zm-94.447-7.667.043-.106c.51-1.277 1.039-2.598 1.578-3.894.256-.616.518-1.228.785-1.837l.05-.11c.258-.588.502-1.142.616-1.793.148-.83-.135-1.806-.737-2.547a3.423 3.423 0 0 0-2.248-1.234 3.426 3.426 0 0 0-2.538.74c-.458.371-.801.86-1.021 1.45l-.109.29-.012-.004c-.119.304-.258.602-.403.914-.098.209-.192.413-.281.618-.347.806-.679 1.612-.956 2.293-.318.78-.631 1.563-.944 2.345-.327.818-.654 1.635-.987 2.45a1056.187 1056.187 0 0 1-4.299 10.33c-3.768-1.796-9.78-4.485-12.093-5.267 0 0 4.467-11.74 7.752-20.406.578-1.525 1.162-3.12.726-4.774-.256-.972-.901-1.924-1.887-2.117-2.697-.527-4.056 2.024-5.064 4.243-5.18 11.397-8.484 21.2-8.484 21.2s-12.487-4.758-26.42 6.662c-7.115 5.833-9.973 15.222-8.282 24.261.703 3.755 6.069 9.57 12.25 9.57 6.183 0 9.496-1.328 13.303-6.678 8.284-11.64 7.218-13.7 13.377-25.716 2.257.928 8.4 3.688 12.17 5.329l-1.911 4.559a6272.77 6272.77 0 0 1-4.341 10.34c-.335.793-.325 1.69.028 2.527a3.461 3.461 0 0 0 1.903 1.881 3.458 3.458 0 0 0 2.603-.054c.81-.356 1.433-1.004 1.8-1.875.994-2.36 1.985-4.723 2.976-7.084l1.14-2.72c.884-2.106 1.77-4.21 2.657-6.316l.459-1.093a3.3 3.3 0 0 0 .48-1.142c1.021-2.427 2.043-4.855 3.059-7.284a551.946 551.946 0 0 0 3.262-7.95Zm196.87-9.498c-.95 0-1.66.473-2.24 1.489l-.018.03c-.499.936-1.003 2.314-1.587 3.91-.305.837-.621 1.701-.957 2.554-1.055 2.646-.573 1.306-3.028 7.07l-.155.365-.37-.094c-.78-.2-1.606-.2-2.27-.2-8.615 0-14.683 6.795-17.534 10.846a28.82 28.82 0 0 0-1.008 1.545l-.102.12-.264.309c-8.051 9.549-10.714 11.286-11.584 11.47l-.274.06-.173-.23c-.066-.086-.279-.418-.279-1.057 0-1.346.577-3.77 1.506-6.325l.039-.081c2.792-4.757 5.48-10.669 6.3-12.776l.025-.075c.01-.03.027-.073.045-.116.101-.245.24-.586.24-1.025 0-1.16-1.048-1.82-1.495-2.103l-.078-.044c-.065-.034-1.99-1.028-5.077-1.028-4.88 0-10.2 2.647-14.596 7.261a27.586 27.586 0 0 0-4.239 5.776c-1.401 2.96-2.065 6.274-2.362 8.277-1.562.758-2.522.968-2.798 1.074-.447.157-.914.297-1.416.423-.39.084-.8.154-1.233.212-.235.021-.46.034-.67.037-.39-.008-.714-.025-.996-.05a11.104 11.104 0 0 1-.722-.138c-.405-.11-.734-.21-1.017-.309-.127-.054-.253-.11-.355-.159a9.604 9.604 0 0 1-.555-.34c-.207-.151-.407-.309-.56-.438v-.018a86.12 86.12 0 0 0 1.612-1.548c2.112-2.082 4.022-4.201 5.676-6.297 1.427-1.807 3.22-4.22 4.439-6.867.607-1.318.945-2.685.976-3.951.01-.435.004-1.083-.163-1.664a4.022 4.022 0 0 0-.226-.708c-.183-.44-.42-.948-.774-1.376a6.297 6.297 0 0 0-1.303-1.19c-1.455-1.003-3.65-1.283-5.593-.717-.8.234-1.596.607-2.366 1.107-.8.52-1.416 1.01-1.938 1.54a21.18 21.18 0 0 0-2.59 3.241 28.379 28.379 0 0 0-3.55 7.798c-.782 2.746-1.141 5.4-1.07 7.893.015.476.046.912.098 1.328a61.155 61.155 0 0 1-3.75 3.03c-.628.414-3.264 2.278-6.118 3.045-.252.046-.503.087-.732.12-.28.016-.534.022-.749.02a10.854 10.854 0 0 1-.397-.043c-.12-.027-.763-.155-.855-.179-.04-.015-.08-.031-.094-.035a7.815 7.815 0 0 1-.195-.106l-.064-.044a1.531 1.531 0 0 0-.065-.057 5.905 5.905 0 0 1-.151-.185c-.043-.069-.083-.137-.112-.186-.027-.058-.053-.117-.068-.153-.064-.19-.122-.38-.17-.544-.056-.3-.098-.6-.129-.886-.004-.253-.002-.504.003-.733.03-.304.067-.605.106-.89.144-.717.33-1.456.568-2.248.752-2.258 1.685-4.447 2.654-6.68a569.78 569.78 0 0 1 2.993-6.745c1.946-4.324 3.147-6.946 5.787-12.649l.007-.004c1.658.042 3.316.106 4.973.17a377.416 377.416 0 0 0 5.055.17l.115-.001c.778-.02 1.411-.25 1.94-.702.58-.497.953-1.22 1.023-1.985a2.978 2.978 0 0 0-.703-2.19c-.524-.614-1.292-1.006-2.004-1.024a374.628 374.628 0 0 1-4.987-.17 919.45 919.45 0 0 0-2.705-.1 278.873 278.873 0 0 1 2.241-4.631c.445-.9.89-1.799 1.342-2.695.048-.095.103-.199.162-.312.413-.784 1.103-2.095 1.508-4.197.17-.875-.34-1.755-1.33-2.295-.814-.445-1.817-.487-2.616-.11a3.138 3.138 0 0 0-1.328 1.138c-.67 1.04-1.224 2.169-1.76 3.26l-.366.744a445.054 445.054 0 0 0-1.866 3.78c-.304.625-.607 1.251-.904 1.88l-.737 1.575c-.098.188-.186.383-.274.579-.041.092-.082.183-.125.275h.001l-.263.565-.085.182-.056.121c-1.315-.013-2.613-.02-3.87-.024-2.59-.01-5.603-.013-8.606.061a2.868 2.868 0 0 0-2.028.928 3 3 0 0 0-.818 2.15c.065 1.607 1.44 2.883 3.073 2.84 2.967-.072 6.085-.096 9.522-.072l-1.916 4.152s-2.637 5.79-4.17 9.228l-.208.468c-1.09 2.44-2.216 4.965-3.225 7.49a43.422 43.422 0 0 0-1.444 4.257c-.5 1.773-.69 3.48-.561 5.078.073.917.228 1.7.472 2.394.302.859.707 1.845 1.427 2.647.81.903 1.663 1.533 2.608 1.927 1.03.428 2.18.646 3.42.646h.002c1.182 0 2.45-.19 3.65-.594 2.238-.753 5.97-3.01 5.97-3.01l-.002-.004c1.683-1.013 3.102-2.107 4.315-3.114l.213-.176c.488.454 1.009.828 1.426 1.114 1.167.8 2.633 1.37 4.359 1.703 1.747.336 5.905-.014 9.614-1.35 1.14 2.073 3.12 3.251 5.653 3.251 2.63 0 5.305-1.293 7.95-3.844l.49-.473.244.652c.85 2.295 2.766 3.665 5.123 3.665 2.167 0 4.66-1.66 8.608-5.728l.564-.581.197.804c.808 3.292 3.342 5.42 6.455 5.42 2.01 0 5.228-.805 9.156-4.646l.587-.574.17.823c.159.77.423 1.496.765 2.099.808 1.427 2.063 2.213 3.532 2.213 3.506 0 4.409-1.633 7.435-5.076.415-.473.742-1.296.742-1.946 0-1.566-.962-2.58-2.452-2.58-.758 0-1.475.473-1.86.878l-.375.432c-.978 1.13-1.714 1.627-2.217 1.838a.56.56 0 0 1-.77-.59c.308-2.492 1.682-7.316 4.762-14.233 3.185-6.929 2.466-5.101 3.851-8.61.202-.514.395-1.003.585-1.481l1.036-2.683c.955-2.168 1.926-4.454 2.616-6.633l.046-.139c.134-.4.244-.757.244-1.102 0-1.247-.985-2.581-2.451-2.581ZM49.924 48.13c-2.775 6.94-5.591 13.924-9.697 20.168-1.46 2.22-3.146 4.398-5.468 5.688s-5.418 1.499-7.525-.119c-1.86-1.428-2.546-3.914-2.728-6.252-1.01-12.974 12.671-22.816 25.505-19.702l-.087.217Zm46.727 13.08a27.995 27.995 0 0 1-1.285 2.564 33.312 33.312 0 0 1-1.76 2.55 29.093 29.093 0 0 1-1.298 1.463c-.412.389-.82.744-1.23 1.075-.296.209-.595.408-.891.597-.281.15-.555.289-.812.413a10.74 10.74 0 0 1-.828.279c-.193.04-.386.073-.56.098-.147.01-.293.016-.417.019a7.43 7.43 0 0 1-.333-.027 8.647 8.647 0 0 1-.323-.07 7.459 7.459 0 0 1-.345-.125c-.08-.038-.16-.08-.221-.112a8.098 8.098 0 0 1-.36-.239 10.727 10.727 0 0 1-.23-.205 10.943 10.943 0 0 1-.269-.305 7.572 7.572 0 0 1-.285-.433 8.82 8.82 0 0 1-.187-.393 9.875 9.875 0 0 1-.22-.716 21.61 21.61 0 0 1-.132-.807c-.037-.465-.058-.93-.064-1.406.026-.715.085-1.427.176-2.162.186-1.13.435-2.256.762-3.438a36.407 36.407 0 0 1 1.083-3.009c.41-.916.837-1.779 1.297-2.618.595 1.28 1.418 2.384 2.386 3.198.618.52 1.254.924 1.891 1.202.819.354 1.664.58 2.658.713.793.104 1.61.119 2.482.036a36.68 36.68 0 0 1-.685 1.859Zm138.695-2.375-.055.097c-2.769 4.967-7.043 9.977-10.351 9.977-1.316 0-1.667-1.637-1.667-2.604 0-3.333 1.983-7.574 5.175-11.069 3.212-3.518 7.068-5.661 10.582-5.879l.83-.051-.404.765c-1.763 3.33-3.098 6.177-4.081 8.702l-.03.062Zm33.97-7.625c-1.821 4.035-3.646 7.408-5.578 10.312-2.16 3.365-5.839 7.302-9.086 7.302-1.29 0-1.747-1.402-1.747-2.603 0-1.645.942-4.626 3.047-7.58 1.829-2.567 6.778-8.564 13.213-8.788l.72-.025-.569 1.382Zm-121.405 6.348a34.581 34.581 0 0 1 1.179-3.29c.374-.84.806-1.684 1.28-2.504.415-.677.824-1.281 1.243-1.837.28-.346.54-.647.782-.903.153-.144.302-.273.439-.384.205-.147.42-.289.617-.41.084-.044.17-.086.256-.126l.14-.045.1-.017.118-.005h.007l.017.038.037.146.009.19c-.011.2-.03.405-.054.596a9.86 9.86 0 0 1-.144.69 12.75 12.75 0 0 1-.397 1.09c-.316.69-.696 1.406-1.23 2.32-.885 1.457-1.922 2.945-3.263 4.684a63.617 63.617 0 0 1-1.679 2.04c.15-.756.332-1.518.543-2.273Zm60.306-1.535c.358-1.11.787-2.224 1.27-3.303.405-.844.873-1.693 1.389-2.518.452-.683.898-1.291 1.356-1.853.305-.349.59-.652.854-.911.168-.146.332-.277.482-.39.226-.148.461-.292.678-.416.093-.045.187-.088.282-.13l.155-.046.109-.018.13-.006h.009l.019.037.043.146.011.19c-.01.2-.028.405-.052.596a9.32 9.32 0 0 1-.153.693c-.12.359-.261.72-.428 1.094-.342.693-.754 1.414-1.336 2.334-.962 1.468-2.094 2.968-3.56 4.721-.58.68-1.194 1.37-1.834 2.06.158-.758.352-1.522.576-2.28ZM98.487 53.52a7.119 7.119 0 0 1-2.51.37c-.611-.022-1.105-.123-1.508-.311-.614-.287-1.146-.843-1.5-1.566-.293-.601-.474-1.31-.568-2.232a1.061 1.061 0 0 1 .164-.685c.333-.542 1.096-.93 1.64-1.174.401-.18.802-.276 1.18-.287.266-.008.52.027.753.104.372.124.732.369 1.07.727.57.602.979 1.415 1.182 2.35.173.793.205 1.677.097 2.704Z"/>
    </g>

    <g id="companyLogoAlt" xmlns="http://www.w3.org/2000/svg" xml:space="preserve" fill-rule="evenodd" stroke-linejoin="round" stroke-miterlimit="2" clip-rule="evenodd" viewBox="0 0 24 24">
        <path fill="currentColor" d="m17.614 5.713.032-.032 5.636 5.636-.865.864h-1.332v6.138H2.812v-6.991l-1.224 1.224-.87-.87L6.72 5.68h10.895v.032ZM7.279 7.97l2.002 2v7.126H7.279v-3.052H6.056v3.052H4.034v-6.99l2.022-2.022v3.226H7.28v-3.34Zm4.213 4.212h1.37v1.77h1.222v-1.77h2.381v1.77h1.222v-1.77h2.175v4.914h-9.359v-5.902l.989.988Zm5.443-5.3h-5.327l2.68 2.68h-1.729l-2.68-2.68H7.92l4.1 4.1h5.375l-2.68-2.68h1.73l2.68 2.68h2.091l-4.1-4.1h-.182Z"/>
    </g>

    <!-- Snapchat Ads -->
    <g id="snapchatAds" xmlns="http://www.w3.org/2000/svg" xml:space="preserve" fill-rule="evenodd" stroke-linejoin="round" stroke-miterlimit="2" clip-rule="evenodd" viewBox="0 0 280 75">
        <path fill="#fffc00" d="M53.853 24.84c0-5.466-4.437-9.903-9.903-9.903H18.63c-5.466 0-9.903 4.437-9.903 9.903v25.322c0 5.465 4.437 9.902 9.903 9.902H43.95c5.466 0 9.903-4.437 9.903-9.902V24.84Z"/>
        <path fill="#fff" fill-rule="nonzero" d="M45.15 45.147c-5.003-2.422-5.8-6.16-5.836-6.438-.043-.336-.091-.6.28-.942.357-.33 1.942-1.311 2.382-1.618.727-.508 1.047-1.016.811-1.64-.165-.431-.567-.594-.99-.594a1.84 1.84 0 0 0-.397.044c-.8.174-1.575.574-2.024.682a.705.705 0 0 1-.165.022c-.24 0-.33-.106-.307-.394.056-.873.175-2.577.037-4.17-.189-2.19-.895-3.275-1.733-4.235-.405-.465-2.287-2.465-5.918-2.465-3.632 0-5.51 2-5.914 2.46-.84.96-1.545 2.044-1.733 4.235-.138 1.592-.014 3.295.037 4.17.017.273-.067.394-.307.394a.714.714 0 0 1-.165-.023c-.448-.108-1.224-.508-2.022-.681a1.84 1.84 0 0 0-.397-.045c-.425 0-.826.165-.99.594-.237.624.082 1.132.811 1.64.44.307 2.026 1.288 2.383 1.619.37.341.322.605.279.941-.036.282-.834 4.02-5.835 6.438-.293.142-.792.442.087.927 1.38.763 2.299.681 3.013 1.141.606.39.247 1.232.688 1.536.542.374 2.142-.026 4.21.656 1.732.571 2.785 2.185 5.859 2.185 3.073 0 4.157-1.621 5.86-2.185 2.063-.682 3.666-.282 4.209-.656.44-.304.082-1.146.688-1.536.714-.46 1.632-.378 3.012-1.14.878-.48.38-.78.086-.922Z"/>
        <path fill="#000104" fill-rule="nonzero" d="M47.326 44.862c-.225-.61-.652-.938-1.14-1.208a2.848 2.848 0 0 0-.247-.13c-.145-.075-.294-.148-.442-.224-1.517-.805-2.702-1.82-3.524-3.024a6.856 6.856 0 0 1-.605-1.072c-.07-.201-.067-.315-.017-.419a.68.68 0 0 1 .194-.202c.26-.173.53-.348.712-.466.326-.21.583-.377.749-.495.623-.436 1.059-.899 1.331-1.416a2.822 2.822 0 0 0 .14-2.342c-.413-1.086-1.439-1.76-2.682-1.76a3.692 3.692 0 0 0-.984.13 23.008 23.008 0 0 0-.07-2.299c-.235-2.713-1.185-4.135-2.175-5.269a8.666 8.666 0 0 0-2.211-1.779c-1.503-.858-3.207-1.294-5.065-1.294-1.858 0-3.554.436-5.059 1.294a8.632 8.632 0 0 0-2.215 1.783c-.99 1.134-1.94 2.558-2.174 5.269-.066.771-.083 1.56-.072 2.298a3.692 3.692 0 0 0-.983-.13c-1.244 0-2.271.674-2.682 1.76a2.825 2.825 0 0 0 .136 2.345c.273.517.709.98 1.332 1.416.165.116.423.282.748.495.176.114.433.28.685.447a.735.735 0 0 1 .22.22c.052.109.054.225-.025.44a6.791 6.791 0 0 1-.595 1.05c-.804 1.177-1.954 2.174-3.423 2.972-.779.412-1.587.688-1.929 1.616-.257.701-.09 1.498.565 2.17.24.25.52.462.826.625a8.94 8.94 0 0 0 2.02.808c.144.037.282.099.407.182.238.21.205.524.522.984.16.238.362.444.598.608.667.46 1.416.489 2.21.52.717.027 1.53.058 2.459.364.384.127.784.373 1.247.66 1.111.684 2.633 1.619 5.18 1.619 2.547 0 4.08-.94 5.2-1.626.46-.282.856-.526 1.23-.65.929-.306 1.742-.337 2.459-.364.794-.03 1.543-.06 2.21-.52.279-.195.51-.448.68-.743.229-.389.223-.66.437-.85.117-.08.247-.139.383-.175.713-.187 1.4-.46 2.047-.815a3.22 3.22 0 0 0 .867-.679l.008-.01c.614-.657.768-1.43.517-2.114Zm-2.264 1.216c-1.381.763-2.299.681-3.013 1.14-.606.391-.247 1.233-.688 1.537-.541.374-2.142-.027-4.209.656-1.705.564-2.793 2.185-5.86 2.185s-4.129-1.618-5.862-2.19c-2.063-.682-3.667-.281-4.209-.655-.44-.304-.083-1.146-.688-1.536-.715-.46-1.633-.378-3.013-1.137-.879-.485-.38-.785-.087-.927 5.001-2.422 5.8-6.16 5.835-6.438.043-.336.09-.6-.28-.941-.357-.33-1.942-1.312-2.382-1.619-.728-.508-1.048-1.016-.812-1.64.165-.431.568-.594.99-.594.134 0 .267.015.397.045.8.173 1.575.573 2.023.681.054.014.11.022.165.023.24 0 .324-.12.307-.395-.05-.874-.175-2.577-.037-4.17.19-2.19.895-3.275 1.733-4.235.403-.461 2.295-2.46 5.914-2.46 3.62 0 5.517 1.99 5.92 2.45.839.96 1.545 2.045 1.733 4.236.138 1.592.019 3.296-.037 4.17-.02.287.067.394.307.394a.705.705 0 0 0 .165-.023c.449-.108 1.224-.508 2.023-.681.13-.03.264-.044.397-.045.425 0 .826.165.99.594.237.624-.082 1.132-.81 1.64-.44.307-2.026 1.288-2.383 1.619-.37.341-.322.605-.28.941.036.282.834 4.02 5.836 6.438.295.148.794.448-.085.937Z"/>
        <g fill="#000104" fill-rule="nonzero">
            <path d="M68.677 49.568c5.628 0 9.089-3.36 9.089-7.59 0-4.928-2.961-6.494-8.722-7.227-3.664-.532-4.43-1.332-4.43-3.03 0-1.6 1.199-2.698 3.564-2.698s3.631.999 3.964 3.164H77.1c-.432-4.728-3.56-7.123-8.922-7.123-5.262 0-8.655 3.027-8.655 7.09 0 4.596 2.495 6.427 8.588 7.227 3.499.533 4.498 1.199 4.498 3.098 0 1.864-1.566 3.164-3.932 3.164-3.53 0-4.43-1.766-4.663-3.898h-5.157c.3 4.762 3.294 7.823 9.82 7.823ZM81.233 49.201h4.824V39.145c0-2.563 1.566-3.829 3.632-3.829 2.132 0 3.065 1.132 3.065 3.496v10.39h4.824V38.112c0-4.66-2.429-6.722-5.857-6.722-2.898 0-4.798 1.43-5.664 3.16v-2.76h-4.824V49.2ZM106.403 49.568c2.732 0 4.264-1.065 5.264-2.462v2.095h4.69V37.85c0-4.728-3.027-6.458-7.289-6.458-4.264 0-7.524 1.83-7.824 5.959h4.56c.199-1.5 1.065-2.467 2.965-2.467 2.199 0 2.831 1.133 2.831 3.2v.7h-1.966c-5.33 0-9.055 1.53-9.055 5.592 0 3.662 2.662 5.193 5.824 5.193Zm1.433-3.36c-1.766 0-2.533-.833-2.533-2.1 0-1.866 1.633-2.465 4.431-2.465h1.866v1.466c0 1.933-1.632 3.1-3.764 3.1ZM120.49 55.128h4.825v-8.587c.9 1.696 2.865 3.027 5.563 3.027 4.33 0 7.59-3.227 7.59-8.989v-.266c0-5.763-3.328-8.922-7.59-8.922-2.565 0-4.597 1.463-5.563 3.127V31.79h-4.824v23.337Zm8.956-9.319c-2.632 0-4.298-1.699-4.298-5.196v-.267c0-3.497 1.733-5.263 4.265-5.263 2.432 0 4.164 1.732 4.164 5.263v.267c0 3.397-1.466 5.196-4.131 5.196ZM149.59 49.568c5.06 0 8.057-2.861 8.323-6.99h-4.362c-.233 2.231-1.798 3.364-3.729 3.364-2.697 0-4.262-1.799-4.262-5.296v-.267c0-3.33 1.665-5.196 4.162-5.196 1.965 0 3.197.932 3.53 2.964h4.562c-.433-4.993-4.163-6.756-8.192-6.756-4.96 0-8.986 3.426-8.986 9.055v.266c0 5.696 3.86 8.856 8.953 8.856ZM160.948 49.201h4.824V39.145c0-2.563 1.566-3.829 3.632-3.829 2.132 0 3.065 1.132 3.065 3.496v10.39h4.824V38.112c0-4.66-2.429-6.722-5.857-6.722-2.899 0-4.798 1.43-5.664 3.16V23.899h-4.824v25.302ZM186.117 49.568c2.733 0 4.265-1.065 5.265-2.462v2.095h4.69V37.85c0-4.728-3.027-6.458-7.289-6.458-4.264 0-7.524 1.83-7.824 5.959h4.559c.2-1.5 1.066-2.467 2.966-2.467 2.199 0 2.831 1.133 2.831 3.2v.7h-1.966c-5.33 0-9.055 1.53-9.055 5.592 0 3.662 2.661 5.193 5.823 5.193Zm1.434-3.36c-1.767 0-2.533-.833-2.533-2.1 0-1.866 1.633-2.465 4.431-2.465h1.866v1.466c0 1.933-1.632 3.1-3.764 3.1ZM206.562 49.534c1.298 0 2.264-.233 2.93-.466v-3.725c-.566.233-1.1.333-1.832.333-1.232 0-1.93-.667-1.93-2.065v-8.395h3.662v-3.425h-3.663v-3.763h-4.79v3.763h-2.232v3.425h2.231v8.828c0 3.628 1.963 5.49 5.624 5.49Z"/>
        </g>
        <g fill="#000104" fill-rule="nonzero">
            <path d="M217.068 49.353h1.745l2.568-7.213h10.603l2.601 7.213h1.844l-8.462-23.544h-2.437l-8.462 23.544Zm9.614-22.033 4.775 13.342h-9.549l4.774-13.342ZM246.344 49.617c3.23 0 5.634-2.17 6.557-4.246v3.982h1.74V23.9h-1.74v12.05c-.989-2.141-2.9-4.08-6.293-4.08-4.547 0-8 3.553-8 8.855v.264c0 5.47 3.355 8.629 7.736 8.629Zm.165-1.478c-3.426 0-6.095-2.504-6.095-7.215v-.264c0-4.645 2.67-7.313 6.36-7.313 3.59 0 6.16 2.504 6.16 7.248v.263c0 4.744-2.933 7.28-6.425 7.28ZM265.216 49.65c3.921 0 6.058-2.104 6.058-5.003 0-3.36-2.104-4.25-5.794-4.909-3.526-.626-4.712-1.35-4.712-3.327 0-1.845 1.614-3.064 4.02-3.064 2.504 0 3.92.989 4.349 3.196h1.677c-.46-3.393-2.896-4.674-5.993-4.674-2.9 0-5.663 1.676-5.663 4.608 0 2.965 1.708 4.052 5.926 4.81 3.23.593 4.515 1.284 4.515 3.492 0 2.075-1.483 3.392-4.383 3.392-3.196 0-4.645-1.613-4.941-3.952h-1.676c.23 3.294 2.565 5.43 6.617 5.43Z"/>
        </g>
    </g>

    <!-- Google Ads -->
    <g id="googleAds" xmlns="http://www.w3.org/2000/svg" xml:space="preserve" fill-rule="evenodd" stroke-linejoin="round" stroke-miterlimit="2" clip-rule="evenodd" viewBox="0 0 280 75">
        <g fill-rule="nonzero">
            <path fill="#3c8bd9" d="M28.582 19.187c.495-1.299 1.175-2.494 2.185-3.462 4.039-3.936 10.715-2.947 13.456 1.998 2.061 3.751 4.245 7.42 6.368 11.128 3.544 6.162 7.13 12.324 10.633 18.506 2.947 5.172-.247 11.705-6.1 12.59-3.585.537-6.944-1.112-8.799-4.327-3.112-5.42-6.244-10.84-9.356-16.238a1.867 1.867 0 0 0-.226-.33c-.33-.268-.474-.66-.68-1.01-1.381-2.431-2.803-4.842-4.184-7.253-.886-1.567-1.813-3.112-2.7-4.678a8.534 8.534 0 0 1-1.133-4.534c.062-.824.165-1.649.536-2.39"/>
            <path fill="#fabc04" d="M28.582 19.187c-.185.741-.35 1.483-.391 2.266-.062 1.731.37 3.339 1.236 4.843 2.267 3.895 4.534 7.81 6.78 11.726.206.35.37.7.577 1.03a1029.096 1029.096 0 0 1-3.73 6.409c-1.731 2.988-3.462 5.997-5.214 8.985-.082 0-.103-.041-.123-.103-.02-.165.04-.31.082-.474.845-3.091.144-5.832-1.978-8.181-1.298-1.422-2.947-2.226-4.843-2.494-2.473-.35-4.657.289-6.615 1.834-.35.268-.577.66-.989.866-.082 0-.124-.041-.144-.103.989-1.71 1.957-3.421 2.947-5.132a7125.73 7125.73 0 0 1 12.261-21.246c.041-.082.103-.144.144-.226"/>
            <path fill="#34a852" d="M13.312 45.853c.392-.35.763-.722 1.175-1.051 5.007-3.957 12.53-1.093 13.621 5.172.268 1.504.124 2.947-.33 4.39-.02.123-.04.226-.082.35-.185.33-.35.68-.556 1.01-1.834 3.029-4.534 4.533-8.078 4.306-4.06-.288-7.254-3.338-7.81-7.377-.268-1.958.123-3.792 1.133-5.482.206-.37.453-.7.68-1.071.103-.083.062-.247.247-.247"/>
            <path fill="#fabc04" d="M13.312 45.853c-.082.082-.082.226-.227.247-.02-.144.062-.227.145-.33l.082.083"/>
            <path fill="#e1c025" d="M27.696 54.714c-.082-.145 0-.248.083-.35l.082.082-.165.268"/>
        </g>
        <path fill="#757575" fill-rule="nonzero" d="M85.418 19.187c-9.007 0-16.5 7.383-16.5 16.47s7.493 16.389 16.5 16.389c4.862 0 8.449-1.623 11.318-4.625 2.95-3.002 3.826-7.14 3.826-10.466 0-1.055-.08-2.028-.239-2.84H85.418v4.463h10.601c-.319 2.515-1.116 4.38-2.391 5.679-1.515 1.541-3.986 3.326-8.21 3.326-6.536 0-11.637-5.354-11.637-11.926s5.1-11.927 11.637-11.927c3.507 0 6.137 1.38 7.97 3.246l3.11-3.165c-2.631-2.596-6.138-4.624-11.08-4.624Zm27.02 11.764c-5.659 0-10.361 4.462-10.361 10.71 0 6.166 4.623 10.71 10.362 10.71S122.8 47.826 122.8 41.66c0-6.167-4.703-10.71-10.362-10.71m0 17.2c-3.109 0-5.819-2.677-5.819-6.49 0-3.814 2.71-6.491 5.819-6.491 3.108 0 5.818 2.596 5.818 6.49 0 3.814-2.71 6.491-5.818 6.491m22.477-17.2c-5.739 0-10.362 4.462-10.362 10.71 0 6.166 4.623 10.71 10.362 10.71 5.66 0 10.362-4.544 10.362-10.71 0-6.167-4.623-10.71-10.362-10.71m0 17.2c-3.108 0-5.818-2.677-5.818-6.49 0-3.814 2.71-6.491 5.818-6.491 3.109 0 5.819 2.596 5.819 6.49 0 3.814-2.63 6.491-5.819 6.491m22.398-17.2c-5.181 0-9.884 4.625-9.884 10.628 0 5.923 4.703 10.548 9.884 10.548 2.47 0 4.384-1.136 5.42-2.434h.16v1.541c0 4.057-2.073 6.248-5.5 6.248-2.79 0-4.464-2.029-5.181-3.733l-3.986 1.704c1.116 2.84 4.145 6.247 9.167 6.247 5.34 0 9.804-3.245 9.804-11.034V31.681h-4.305v1.704h-.159c-1.036-1.298-2.95-2.434-5.42-2.434m.398 17.038c-3.108 0-5.739-2.677-5.739-6.41 0-3.732 2.63-6.49 5.74-6.49 3.108 0 5.5 2.758 5.5 6.49 0 3.733-2.392 6.41-5.5 6.41m12.832-27.504h4.544v31.317h-4.544V20.485Zm16.739 10.466c-5.42 0-9.964 4.3-9.964 10.71 0 6.003 4.464 10.71 10.442 10.71 4.862 0 7.652-3.003 8.768-4.707l-3.587-2.434c-1.196 1.785-2.87 2.921-5.181 2.921-2.391 0-4.065-1.054-5.101-3.245l14.108-5.923-.478-1.217c-.877-2.353-3.587-6.815-9.007-6.815m-5.42 10.385c-.16-4.138 3.188-6.247 5.5-6.247 1.833 0 3.427.892 3.905 2.272l-9.405 3.975Zm22.876 9.98 10.521-28.478h4.065l10.521 28.477h-3.985l-2.71-7.707h-11.717l-2.71 7.707h-3.985Zm7.89-11.116h9.326l-4.543-12.819h-.16l-4.622 12.82Zm20.884 8.763c-1.754-2.029-2.63-4.463-2.63-7.384 0-2.84.876-5.273 2.63-7.383 1.833-2.028 3.906-3.002 6.456-3.002 1.435 0 2.71.325 3.826.893 1.196.649 2.073 1.38 2.71 2.434h.16l-.16-2.677v-9.006h3.587v28.477h-3.427v-2.677h-.16c-.637.974-1.514 1.785-2.71 2.434-1.195.65-2.47.892-3.826.892-2.55 0-4.702-.973-6.456-3.001m11.318-2.272c1.196-1.298 1.754-3.002 1.754-5.112 0-2.028-.558-3.732-1.754-5.03-1.115-1.298-2.55-1.947-4.304-1.947-1.753 0-3.188.65-4.304 1.947-1.196 1.298-1.754 3.002-1.754 5.03 0 2.029.558 3.733 1.754 5.03 1.196 1.299 2.63 1.948 4.304 1.948 1.754.081 3.189-.568 4.304-1.866m21.84 3.489c-1.435 1.135-3.268 1.784-5.5 1.784-1.913 0-3.586-.486-5.1-1.541-1.436-1.055-2.472-2.353-3.11-4.057l3.189-1.379c.478 1.136 1.116 2.11 2.072 2.759a4.95 4.95 0 0 0 2.95.973c1.115 0 2.072-.243 2.869-.73.797-.487 1.116-1.136 1.116-1.785 0-1.217-.957-2.19-2.79-2.758l-3.268-.812c-3.746-.973-5.58-2.758-5.58-5.517 0-1.785.718-3.164 2.153-4.3 1.434-1.055 3.268-1.623 5.42-1.623 1.674 0 3.188.406 4.623 1.217 1.355.812 2.311 1.948 2.87 3.327l-3.19 1.38c-.398-.812-.956-1.461-1.753-1.948-.797-.487-1.753-.73-2.79-.73-.956 0-1.753.243-2.55.73-.717.487-1.116 1.055-1.116 1.785 0 1.136 1.036 1.947 3.109 2.353l2.87.73c3.825.974 5.658 2.92 5.658 5.842.08 1.703-.717 3.164-2.152 4.3"/>
    </g>

    <!-- Tiktok Ads -->
    <g id="tiktokAds" xmlns="http://www.w3.org/2000/svg" xml:space="preserve" fill-rule="evenodd" stroke-linejoin="round" stroke-miterlimit="2" clip-rule="evenodd" viewBox="0 0 280 75">
        <path fill="#000104" d="M8.926 18.937H36.61l-2.543 7.922h-7.18v29.278h-8.948V26.859H8.926v-7.922Zm73.025 0h28.32l-2.537 7.922h-7.822v29.293h-8.949V26.86h-9.006v-7.917l-.006-.005ZM38.293 31.57v-.81h8.875v23.024l-.026 2.337h-8.79v-1.258l-.059-23.293ZM50.69 20.58v-1.753h8.77v17.312l8.863-8.622h10.612L67.823 38.303l12.45 17.812h-9.76L62.181 43.81l-2.632 2.553v9.811h-8.833v-.837l-.032-34.74.006-.017Zm93.932 0v-1.753h8.775v17.312l8.865-8.622h10.58L161.73 38.303l12.48 17.828h-9.79l-8.307-12.322-2.632 2.553v9.811h-8.832v-.837l-.027-34.757ZM131.3 42.908c.991-3.548-.822-7.322-4.211-8.765a7.133 7.133 0 0 0-2.537-.558h-.348a7.824 7.824 0 0 0-1.98.258 7.34 7.34 0 0 0-1.768.732 6.808 6.808 0 0 0-1.49 1.137 7.336 7.336 0 0 0-2.148 5.227 7.47 7.47 0 0 0 1.006 3.742 7.25 7.25 0 0 0 5.174 3.527c.403.064.81.095 1.217.095h.284a7.302 7.302 0 0 0 6.8-5.38v-.015Zm6.88-7.949a14.86 14.86 0 0 1 1.19 5.964 15.128 15.128 0 0 1-2.064 7.706 14.968 14.968 0 0 1-5.417 5.417 15.267 15.267 0 0 1-4.827 1.784l-.294.053c-.45.074-.902.126-1.358.158-.295 0-.595.031-.895.042h-.569c-.526 0-1.053-.047-1.579-.105l-.221-.032c-.147 0-.295-.037-.437-.063l-.258-.042-.426-.084-.221-.048c-6.87-1.618-11.764-7.8-11.764-14.858 0-2.684.708-5.321 2.052-7.645a15.227 15.227 0 0 1 2.358-3.047 14.416 14.416 0 0 1 3.064-2.343 15.32 15.32 0 0 1 4.495-1.705l.284-.053a15.21 15.21 0 0 1 2.58-.268h.752c.755.02 1.508.091 2.253.215h.042a15.423 15.423 0 0 1 1.411.311c.098.023.194.051.29.084.277.078.55.167.82.269a14.923 14.923 0 0 1 5.511 3.48 15.193 15.193 0 0 1 3.243 4.8l-.015.01ZM47.205 23.38c0 2.454-2.02 4.474-4.474 4.474-2.455 0-4.475-2.02-4.475-4.474 0-2.455 2.02-4.474 4.475-4.474 2.454 0 4.474 2.02 4.474 4.474Z"/>
        <path fill="#fd014f" d="M140.522 34.97a15.193 15.193 0 0 0-3.243-4.8 15.08 15.08 0 0 0-10.717-4.374h-1.974c.755.02 1.508.091 2.253.216h.042a15.423 15.423 0 0 1 1.411.31c.098.023.194.051.29.084.277.078.55.167.82.269l.19.068a14.858 14.858 0 0 1 5.322 3.411 15.193 15.193 0 0 1 3.243 4.8 14.86 14.86 0 0 1 1.19 5.965 15.06 15.06 0 0 1-.527 4.074 15.325 15.325 0 0 1-1.527 3.632 14.968 14.968 0 0 1-5.416 5.417 15.305 15.305 0 0 1-4.211 1.663l-.232.047c-.96.2-1.936.31-2.916.327h2.105c2.688.01 5.329-.696 7.654-2.043a14.968 14.968 0 0 0 5.417-5.416c1.363-2.339 2.077-5 2.068-7.706a14.953 14.953 0 0 0-1.242-5.943"/>
        <path fill="#24f2ea" d="m122.351 55.99-.22-.032a14.477 14.477 0 0 1-1.122-.19l-.221-.047c-6.878-1.56-11.795-7.734-11.775-14.786a15.043 15.043 0 0 1 4.421-10.765 14.416 14.416 0 0 1 3.064-2.342 15.374 15.374 0 0 1 7.37-2.027h-1.98a15.436 15.436 0 0 0-7.722 2.032 14.416 14.416 0 0 0-3.064 2.342 14.884 14.884 0 0 0-2.358 3.048 15.34 15.34 0 0 0 0 15.423 14.96 14.96 0 0 0 9.065 6.927c1.41.38 2.866.557 4.326.527h1.811a13.26 13.26 0 0 1-1.579-.106"/>
        <path fill="#000104" fill-rule="nonzero" d="m190.95 55.858 13.112-29.136h5.327l13.16 29.136h-5.67l-11.28-26.262h2.163l-11.238 26.262h-5.575Zm6.032-6.743 1.442-4.254h15.734l1.458 4.243-18.634.01ZM234.94 56.147a11.62 11.62 0 0 1-5.791-1.432 10.485 10.485 0 0 1-4.016-3.974 13.063 13.063 0 0 1 0-11.99 10.317 10.317 0 0 1 4.016-3.954 11.714 11.714 0 0 1 5.79-1.416 10.073 10.073 0 0 1 4.995 1.232 8.661 8.661 0 0 1 3.496 3.721c.858 1.669 1.29 3.8 1.29 6.412a14.383 14.383 0 0 1-1.248 6.39 8.532 8.532 0 0 1-3.453 3.764 10.15 10.15 0 0 1-5.08 1.247Zm.625-4.453a6.66 6.66 0 0 0 3.348-.832 6.223 6.223 0 0 0 2.374-2.41 8.17 8.17 0 0 0 0-7.433 6.274 6.274 0 0 0-2.374-2.39 7.17 7.17 0 0 0-6.7 0 6.231 6.231 0 0 0-2.37 2.39 8.17 8.17 0 0 0 0 7.432 6.174 6.174 0 0 0 2.37 2.411c1.024.57 2.18.86 3.352.842v-.01Zm6.743 4.164v-5.264l.206-5.912-.4-5.89V24.975h5.163v30.883h-4.969ZM260.995 56.147a19.477 19.477 0 0 1-5.348-.726 13.688 13.688 0 0 1-4.058-1.769l1.995-3.953a15.308 15.308 0 0 0 7.743 2.205c1.635 0 2.821-.222 3.558-.668a2.018 2.018 0 0 0 1.1-1.79 1.55 1.55 0 0 0-.747-1.39 5.841 5.841 0 0 0-1.953-.731 51.105 51.105 0 0 0-2.685-.458 35.02 35.02 0 0 1-2.958-.563c-.94-.22-1.845-.575-2.685-1.053a5.486 5.486 0 0 1-1.952-1.853 5.627 5.627 0 0 1-.753-3.08c-.028-1.33.4-2.63 1.21-3.684a7.642 7.642 0 0 1 3.39-2.41 14.213 14.213 0 0 1 5.18-.859 21.32 21.32 0 0 1 4.537.5c1.333.261 2.613.74 3.79 1.416l-2 3.953a10.578 10.578 0 0 0-3.185-1.31 14.656 14.656 0 0 0-3.158-.353c-1.579 0-2.751.235-3.516.705a2.076 2.076 0 0 0-1.142 1.79c-.036.597.25 1.17.747 1.5.603.374 1.265.64 1.958.79.885.21 1.782.37 2.685.479.988.125 1.967.313 2.932.563a12.1 12.1 0 0 1 2.684 1.021 5.115 5.115 0 0 1 1.98 1.811 5.52 5.52 0 0 1 .72 3.053 5.654 5.654 0 0 1-1.226 3.622 7.932 7.932 0 0 1-3.474 2.39 15.163 15.163 0 0 1-5.369.852Z"/>
    </g>

    <!-- Facebook Ads -->
    <g id="facebookAds" xmlns="http://www.w3.org/2000/svg" xml:space="preserve" fill-rule="evenodd" stroke-linejoin="round" stroke-miterlimit="2" clip-rule="evenodd" viewBox="0 0 280 75">
        <path fill="#3a589e" d="M26.129 20.547c-1.93-.39-3.4-.688-5.424-.688-5.815 0-8.136 2.766-8.136 7.69v3.59H8.926v5.815h3.643v17.701h7.097V36.954h5.18l.487-5.815h-5.667v-2.807c0-1.578.148-2.563 2.415-2.563.837 0 2.172.148 3.157.35l.89-5.572Zm21.384 34.108V39.328c0-6.651-1.821-9.174-10.146-9.174-2.765 0-6.368.499-8.634 1.187l.944 5.33c2.267-.446 4.385-.702 6.503-.702 3.791 0 4.237.85 4.237 3.305v1.822h-5.181c-4.925 0-7.138 1.929-7.138 6.76 0 4.087 1.822 7.285 6.26 7.285 1.62 0 4.089-.486 6.841-2.024l.5 1.538h5.814Zm-7.096-5.869c-1.08.5-2.119.836-3.603.836-1.376 0-1.916-.54-1.916-1.875 0-1.322.594-1.713 2.119-1.713h3.4v2.752Zm18.632-8.972c0-2.456 1.025-3.589 3.886-3.589 1.39 0 3.453.243 4.938.594l.877-5.923c-2.416-.54-4.142-.742-5.815-.742-7.785 0-10.983 2.914-10.983 9.768v5.464c0 6.854 3.198 9.755 10.983 9.755 1.673 0 3.4-.19 5.815-.742l-.877-5.91c-1.727.391-3.117.594-4.938.594-2.86 0-3.886-1.133-3.886-3.602v-5.667Zm32.92 5.33V40.11c0-5.222-1.727-9.957-9.714-9.957s-10.294 4.439-10.294 9.62v5.612c0 5.91 2.954 9.755 10.74 9.755 3.345 0 6.853-.742 9.012-1.525L90.687 48.3c-2.118.634-5.086 1.026-7.299 1.026-3.251 0-4.33-.742-4.33-3.495v-.688h12.911Zm-6.705-5.33h-6.207v-1.025c0-1.687.783-3.063 3.252-3.063 2.455 0 2.955 1.376 2.955 3.063v1.025Zm33.163 5.221V38.83c0-5.37-2.064-8.675-7.394-8.675-2.604 0-4.87.593-6.8 1.335V19.86l-7.097.985v33.514c3.306.54 7.192.783 9.755.783 9.916 0 11.536-4.385 11.536-10.106Zm-14.194-7.38c1.336-.701 3.009-1.335 4.533-1.335 1.876 0 2.564.984 2.564 2.563v6.206c0 2.267-.634 3.9-4.183 3.9-.984 0-1.875 0-2.914-.109V37.655Zm28.98 17.486c8.528 0 10.835-4.776 10.835-9.7v-5.573c0-4.925-2.307-9.714-10.834-9.714s-10.848 4.79-10.848 9.714v5.572c0 4.925 2.32 9.7 10.848 9.7Zm0-5.964c-2.563 0-3.75-1.281-3.75-3.548v-5.964c0-2.266 1.187-3.548 3.75-3.548 2.565 0 3.738 1.282 3.738 3.548v5.964c0 2.267-1.173 3.548-3.737 3.548Zm25.622 5.964c8.527 0 10.848-4.776 10.848-9.7v-5.573c0-4.925-2.32-9.714-10.848-9.714-8.527 0-10.834 4.79-10.834 9.714v5.572c0 4.925 2.307 9.7 10.834 9.7Zm0-5.964c-2.564 0-3.737-1.281-3.737-3.548v-5.964c0-2.266 1.173-3.548 3.737-3.548s3.75 1.282 3.75 3.548v5.964c0 2.267-1.186 3.548-3.75 3.548Zm23.112 5.478V19.859l-7.097.985v33.811h7.097Zm.944-12.075 6.395 12.075h7.596l-6.598-12.075 6.301-11.927h-7.582L182.89 42.58Z"/>
        <path fill="#828282" d="M227.698 54.695h2.563l-10.28-29.533h-3.86l-10.293 29.533h2.576l2.752-7.757h13.749l2.793 7.757Zm-9.674-28.022 6.085 17.998h-12.157l6.072-17.998Zm16.77 22.477c0 3.913 1.903 5.99 6.112 5.99 2.401 0 5.1-.836 7.286-2.482l.121 2.037h2.36V23.92l-2.576.351v9.094c-2.483-.486-4.385-.702-6.651-.702-4.884 0-6.652 2.699-6.652 6.652v9.835Zm13.303.931c-2.037 1.646-4.344 2.753-7.002 2.753-2.928 0-3.737-1.188-3.737-3.684v-9.835c0-2.928 1.16-4.345 3.994-4.345 2.09 0 4.397.257 6.745.742v14.37Zm22.977-.836c0-4.034-.35-5.06-6.706-6.652-3.98-1.025-4.169-1.335-4.169-4.304 0-2.347.54-3.319 4.304-3.319 1.781 0 4.304.257 6.03.621l.271-2.186c-1.687-.485-4.129-.742-6.125-.742-5.316 0-7.043 1.943-7.043 5.532 0 3.953.445 5.289 5.856 6.57 4.924 1.147 5.006 1.471 5.006 4.574 0 2.74-.797 3.495-4.79 3.495-1.592 0-3.86-.31-5.721-.877l-.445 2.077c1.605.661 4.168 1.107 6.34 1.107 5.775 0 7.192-1.997 7.192-5.896Z"/>

    </g>

    <!-- Youtube Ads -->
    <g id="youtubeAds" xmlns="http://www.w3.org/2000/svg" viewBox="0 0 199 29">
        <g fill="none" fill-rule="nonzero">
            <g fill="#212121">
            <path d="M114.3 17.5h-3.5l-.6 4.3h-2.4l3-19.7h3.5l3 19.7h-2.4l-.6-4.3Zm-.2-1.8-.9-6.9c-.2-1.3-.4-3-.5-4.6h-.2c-.1 1.5-.3 3.3-.5 4.6l-.9 6.9h3ZM126.9 1.4v20.4h-1.8l-.3-1.9h-.1c-.5 1.2-1.6 2.1-2.9 2.1-2.1 0-2.9-1.7-2.9-5.9v-2.7c0-4.2 1-6.1 3.1-6.1 1.1 0 2.1.5 2.6 1.4h.1c-.1-1.1-.1-2-.1-2.9V1.4h2.3Zm-2.3 17.3v-8.6c-.4-.6-1-1-1.6-1-1.2 0-1.6 1.1-1.6 4.5v2.3c0 3.2.4 4.3 1.5 4.3.6 0 1.3-.5 1.7-1.5ZM128.1 7.5h2.4l1.4 8.2c.2 1.3.4 2.4.5 3.6h.1c.1-1.2.3-2.3.5-3.6l1.3-8.3h2.4l-2.9 14.3h-2.7l-3-14.2ZM140.1 15.5v1c0 2.6.2 3.8 1.6 3.8 1.2 0 1.6-.9 1.5-2.8l2.1.1c.1 3-1.1 4.4-3.7 4.4-3 0-3.9-1.9-3.9-6v-2.8c0-3.9 1-5.9 3.9-5.9s3.8 1.7 3.8 5.9v2.3h-5.3Zm0-2.8V14h3v-1.3c0-2.7-.3-3.6-1.5-3.6-1.1-.1-1.5.9-1.5 3.6ZM153 7.3l-.2 2.7c-1.4-.4-2.5.2-3 1.4v10.4h-2.3V7.5h1.8l.3 2.7c.4-2 1.7-3 2.8-3 .2 0 .4.1.6.1ZM159.7 21.4c-.7.4-1.8.6-2.5.6-1.8 0-2.3-.8-2.3-3.3V9.4h-1.3V7.5h1.4l.4-4.1h1.8v4.1h2.3v1.9h-2.3v9c0 1.4.2 1.7.8 1.7.4 0 .8-.1 1.2-.2l.5 1.5ZM161 3.9c0-1.3.4-1.6 1.4-1.6 1 0 1.4.4 1.4 1.6 0 1.3-.4 1.6-1.4 1.6-1 0-1.4-.3-1.4-1.6Zm.1 3.6h2.3v14.3h-2.3V7.5ZM165.4 17.5h2.1c-.1 1.9.4 2.9 1.6 2.9.9 0 1.5-.7 1.5-1.7 0-1.2-.8-1.9-2.6-3.4-1.7-1.3-2.6-2.4-2.6-4.5 0-2.3 1.3-3.5 3.7-3.5 2.7 0 3.7 1.4 3.5 4.7l-2.1.1c0-2.2-.3-3-1.4-3-.9 0-1.5.5-1.5 1.6s.5 1.7 2 2.9c2.4 1.8 3.2 2.8 3.2 4.8 0 2.5-1.4 3.7-3.8 3.7-2.9 0-4-1.6-3.6-4.6ZM174.5 3.9c0-1.3.4-1.6 1.4-1.6 1 0 1.4.4 1.4 1.6 0 1.3-.4 1.6-1.4 1.6-1 .1-1.4-.3-1.4-1.6Zm.1 3.6h2.3v14.3h-2.3V7.5ZM187.3 11.1v10.8h-2.4V11.3c0-1.5-.4-2.2-1.3-2.2-.7 0-1.3.4-1.8 1.1v11.6h-2.4V7.5h1.9l.3 1.7c.7-1.2 1.7-2 3.1-2 1.8.1 2.6 1.4 2.6 3.9ZM198 24.4c0 2.4-1.8 3.9-4.8 3.9-2.7 0-4.3-1.2-4.3-3.2 0-1.4.8-2.3 2.2-2.8-.9-.4-1.6-.9-1.6-2 0-1 .5-1.8 1.6-2.3-1.1-.7-1.6-2.2-1.6-4.7v-.7c0-3.7 1.2-5.4 3.9-5.4 1.1 0 2 .3 2.6.9.4-1.1 1.1-1.9 2.2-2l.3 2.3c-.8 0-1.4.3-1.8.8.4.8.5 1.9.5 3.3v.7c0 3.9-1.3 5.3-3.8 5.3-.5 0-.9 0-1.3-.2-.4.3-.6.6-.6 1-.1 2.2 6.5.4 6.5 5.1Zm-5.6-1.8c-1 .4-1.5 1.1-1.5 2 0 1.2.8 2 2.4 2 1.6 0 2.6-.7 2.6-1.8 0-1.6-1.8-1.8-3.5-2.2Zm-.7-9c0 2.5.4 3.3 1.5 3.3s1.5-.8 1.5-3.3v-1.1c0-2.5-.4-3.4-1.5-3.4s-1.5.8-1.5 3.4v1.1Z"/>
            </g>
            <path fill="red" d="M32.9 4.1c-.4-1.4-1.5-2.5-2.9-2.9C27.4.5 17.2.5 17.2.5S6.9.5 4.4 1.2C3 1.6 1.9 2.7 1.5 4.1.8 6.7.8 12 .8 12s0 5.3.7 7.9c.4 1.4 1.5 2.5 2.9 2.9 2.6.7 12.8.7 12.8.7s10.3 0 12.8-.7c1.4-.4 2.5-1.5 2.9-2.9.7-2.6.7-7.9.7-7.9s-.1-5.4-.7-7.9Z"/>
            <path fill="#FFF" d="m13.8 16.9 8.6-4.9-8.6-5z"/>
            <g fill="#212121">
            <path d="M48.4 21.4c-.7-.4-1.1-1.1-1.4-2-.3-.9-.4-2.2-.4-3.7v-2.1c0-1.6.2-2.8.5-3.7.3-.9.8-1.6 1.5-2.1.7-.4 1.5-.6 2.6-.6s1.9.2 2.6.7c.6.4 1.1 1.1 1.4 2.1.3.9.4 2.2.4 3.7v2.1c0 1.5-.1 2.8-.4 3.7-.3.9-.8 1.6-1.4 2-.7.4-1.5.6-2.6.6-1.3 0-2.2-.3-2.8-.7Zm3.6-2.3c.2-.5.3-1.2.3-2.3v-4.5c0-1-.1-1.8-.3-2.3-.2-.5-.5-.7-1-.7-.4 0-.7.2-.9.7-.2.5-.3 1.2-.3 2.3v4.5c0 1.1.1 1.8.3 2.3.2.5.5.7.9.7.5.1.8-.2 1-.7ZM98.3 15.7v.7c0 .9 0 1.6.1 2.1s.2.8.3 1c.2.2.4.3.8.3.5 0 .8-.2 1-.6.2-.4.3-1 .3-1.9l2.8.2v.5c0 1.3-.4 2.3-1.1 3-.7.7-1.8 1-3.1 1-1.6 0-2.7-.5-3.4-1.5-.6-1-1-2.6-1-4.7v-2.5c0-2.2.3-3.7 1-4.7s1.8-1.5 3.4-1.5c1.1 0 2 .2 2.6.6.6.4 1 1 1.3 1.9.2.9.4 2 .4 3.6v2.5h-5.4Zm.4-6.1c-.2.2-.3.5-.3 1-.1.5-.1 1.2-.1 2.1v1h2.4v-1c0-.9 0-1.6-.1-2.1s-.2-.8-.3-1c-.2-.2-.4-.3-.8-.3s-.6.1-.8.3ZM40.5 15.4 36.8 2.1H40l1.3 6c.3 1.5.6 2.8.7 3.8h.1c.1-.7.4-2 .7-3.8L44.1 2h3.2l-3.7 13.3v6.4h-3.2l.1-6.3ZM66 7.4v14.4h-2.5l-.3-1.8h-.1c-.7 1.3-1.7 2-3.1 2-1 0-1.7-.3-2.1-.9-.5-.6-.7-1.6-.7-2.9V7.4h3.2V18c0 .6.1 1.1.2 1.4.1.3.4.4.7.4.3 0 .6-.1.8-.3.3-.2.4-.4.6-.7V7.4H66ZM82.7 7.4v14.4h-2.5l-.3-1.8h-.1c-.7 1.3-1.7 2-3.1 2-1 0-1.7-.3-2.1-.9-.5-.6-.7-1.6-.7-2.9V7.4h3.2V18c0 .6.1 1.1.2 1.4.1.3.4.4.7.4.3 0 .6-.1.8-.3.3-.2.4-.4.6-.7V7.4h3.3Z"/>
            <path d="M74.8 4.7h-3.2v17.1h-3.2V4.7h-3.2V2.1h9.6v2.6zM93.4 9.7c-.2-.9-.5-1.6-1-2-.4-.4-1-.6-1.8-.6-.6 0-1.1.2-1.7.5-.5.3-.9.8-1.2 1.3V1.3h-3.1v20.4h2.7l.3-1.4h.1c.3.5.6.9 1.1 1.2.5.3 1.1.4 1.7.4 1.1 0 1.9-.5 2.4-1.5s.8-2.6.8-4.7v-2.3c0-1.5-.1-2.8-.3-3.7Zm-3 5.9c0 1 0 1.9-.1 2.5-.1.6-.2 1-.4 1.3-.2.3-.5.4-.8.4-.3 0-.5-.1-.7-.2-.2-.1-.4-.3-.6-.6v-8.2c.1-.4.3-.7.6-1 .3-.3.6-.4.9-.4.3 0 .6.1.8.4.2.3.3.7.4 1.3.1.6.1 1.5.1 2.6v1.9h-.2Z"/>
            </g>
        </g>
    </g>

    <!-- Klaviyo -->
    <g id="klaviyo" xmlns="http://www.w3.org/2000/svg" xml:space="preserve" fill-rule="evenodd" stroke-linejoin="round" stroke-miterlimit="2" clip-rule="evenodd" viewBox="0 0 224 75">
        <g fill="#000104" fill-rule="nonzero">
            <path d="M125.996 19.167a4.208 4.208 0 0 0 2.941-1.177 4.152 4.152 0 0 0 1.27-2.887 4.217 4.217 0 0 0-1.247-2.943 4.276 4.276 0 0 0-2.964-1.239 4.209 4.209 0 0 0-2.906 1.261 4.15 4.15 0 0 0-1.185 2.921 4.082 4.082 0 0 0 1.208 2.864 4.14 4.14 0 0 0 2.883 1.2Zm28.615 3.907h10.157v.8a5.435 5.435 0 0 0-1.612.553c-.928.432-2.785 2.523-4.21 6.027-2.415 6.089-4.952 13.28-7.614 21.523l-.992 3.126c-.434 1.413-.805 2.335-.99 2.891-.187.557-.435 1.413-.867 2.457a13.695 13.695 0 0 1-.944 2.276c-.497.922-1.426 2.813-2.168 3.382-1.177.984-2.912 2.09-5.077 1.906-4.21 0-7.368-3.125-7.43-6.823 0-2.523 1.61-4.182 4.025-4.182 1.734 0 3.28.938 3.28 2.888 0 1.416-1.423 2.891-1.423 3.63 0 1.905 1.114 2.812 3.282 2.812 1.731 0 3.148-1.106 4.208-3.32 1.426-2.522 1.549-5.288.372-8.364l-8.914-23.427c-2.045-5.41-3.594-7.189-5.51-7.38v-.8h14.052v.8c-1.671.184-2.536 1.169-2.536 2.95 0 1.291.494 3.26 1.422 5.783l1.671 4.548c1.92 4.92 3.462 9.224 4.274 11.93 1.794-5.594 3.463-10.514 5.077-14.818 1.177-3.198 1.734-5.473 1.734-6.827 0-2.397-1.3-3.503-3.282-3.503l.015-.838ZM56.843 53.02c-1.794-.312-3.342-1.906-3.342-5.288V6.964L43.285 9.177v.863c1.734-.184 3.461 1.35 3.461 4.61v33.083c0 3.197-1.734 5.042-3.461 5.288a4.656 4.656 0 0 1-.492.06 5.468 5.468 0 0 1-2.58-.453c-1.372-.594-2.518-1.654-3.488-3.235l-4.72-7.502a8.68 8.68 0 0 0-4.22-3.475 8.752 8.752 0 0 0-5.474-.276l5.325-5.842c4.022-4.426 7.74-7.255 11.267-8.423v-.801H27.19v.8c3.034 1.169 2.848 3.75-.63 7.814l-7.49 8.667V6.965L8.853 9.176v.863c1.734 0 3.462 1.719 3.462 4.732v32.96c0 3.63-1.671 5.043-3.462 5.29v.8h13.571v-.8c-2.228-.313-3.342-2.03-3.342-5.29v-6.085l2.908-3.198 7.044 11.497c1.67 2.769 3.22 3.876 5.696 3.876h23.574v-.626s-.674-.046-1.46-.175Zm28.125-3.888V35.38c-.136-8.993-3.931-13.087-12.624-13.087a12.42 12.42 0 0 0-7.676 2.581c-2.291 1.723-3.406 3.692-3.406 5.967 0 2.214 1.237 3.873 3.28 3.873 2.168 0 3.717-1.228 3.717-2.95 0-1.292-.869-3.076-.869-4.305 0-2.216 1.675-4.122 4.583-4.122 3.717 0 6.376 2.77 6.376 8.917v3.689l-3.094.737c-1.611.313-2.97.625-4.025.938a55.413 55.413 0 0 0-4.026 1.35c-3.22 1.232-4.95 2.4-6.439 4.614a6.42 6.42 0 0 0-1.114 3.629c0 5.1 3.59 7.439 8.608 7.439 3.962 0 8.183-2.091 10.09-6.027a8.482 8.482 0 0 0 .878 3.576c2.1 4.22 9.052 1.726 9.052 1.726v-.8c-3.044.472-3.295-3.123-3.311-3.992Zm-6.61-4.257c0 2.028-.742 3.688-2.228 4.857-1.422 1.17-2.908 1.785-4.456 1.785-3.034 0-5.017-1.97-5.017-5.598 0-1.72.944-3.32 1.734-4.242a7.55 7.55 0 0 1 2.168-1.538c1.052-.553 1.574-.837 2.292-1.169l2.832-1.044c1.423-.553 2.288-.86 2.66-1.043l.015 7.992Zm136.789-21.802h-24.08V6.964h24.08l-5.055 8.055 5.055 8.055ZM166.2 49.908a16.1 16.1 0 0 1-4.592-11.455c-.033-2.108.357-4.201 1.145-6.156a15.91 15.91 0 0 1 3.447-5.241c3.037-3.2 6.757-4.804 11.1-4.804 4.277 0 8.001 1.603 11.038 4.804a15.698 15.698 0 0 1 3.496 5.227 15.609 15.609 0 0 1 1.156 6.17 15.843 15.843 0 0 1-1.164 6.193 15.927 15.927 0 0 1-3.488 5.262c-3.037 3.126-6.76 4.742-11.038 4.742-4.343 0-8.063-1.6-11.1-4.742Zm16.68-22.34c-1.224-2.378-2.832-3.772-4.72-4.147-3.83-.766-7.217 3.144-8.479 9.362a29.309 29.309 0 0 0-.387 8.467 23.352 23.352 0 0 0 2.335 8.127c1.227 2.382 2.833 3.773 4.72 4.147 3.831.766 7.315-3.31 8.587-9.59 1.054-5.247.52-11.639-2.071-16.368l.016.003Z"/>
            <path d="M129.587 47.733v-24.66h-21.795v.742c2.911.431 4.296 2.613 2.974 6.151-6.81 18.386-6.376 17.56-6.81 19.036-.435-1.416-1.426-4.895-3.034-9.259-1.609-4.363-2.663-7.257-3.097-8.548-1.672-5.105-1.115-7.011 1.61-7.318v-.8H85.318v.8c2.106.432 3.963 2.829 5.511 7.133l2.168 5.595c2.383 6.045 5.181 14.378 6.116 17.22h4.692c1.511-4.376 7.573-21.84 8.385-23.615.875-2.022 1.866-3.554 2.974-4.614a5.518 5.518 0 0 1 1.91-1.321 5.556 5.556 0 0 1 2.289-.423c.784.023 3.402 0 3.402 3.26v20.62c0 3.44-1.671 5.043-3.406 5.29v.8h13.5v-.8c-1.785-.247-3.27-1.845-3.27-5.29Z"/>
        </g>
    </g>

    <!-- Shopify -->
    <g id="shopify" xmlns="http://www.w3.org/2000/svg" xml:space="preserve" fill-rule="evenodd" stroke-linejoin="round" stroke-miterlimit="2" clip-rule="evenodd" viewBox="0 0 232 75">
        <g fill-rule="nonzero">
            <path fill="#95bf47" d="M54.845 18.417a.543.543 0 0 0-.515-.472c-.214 0-4.46-.085-4.46-.085s-3.56-3.431-3.902-3.817c-.343-.343-1.03-.258-1.287-.172 0 0-.686.215-1.801.558-.172-.6-.472-1.33-.858-2.102-1.243-2.401-3.13-3.688-5.36-3.688-.172 0-.3 0-.472.043-.086-.086-.129-.171-.215-.214-.986-1.03-2.23-1.544-3.73-1.501-2.874.085-5.747 2.187-8.106 5.875-1.63 2.616-2.873 5.875-3.26 8.406-3.302 1.029-5.617 1.758-5.703 1.758-1.673.515-1.716.557-1.93 2.144-.086 1.201-4.46 35.038-4.46 35.038l36.71 6.347 15.91-3.946c-.042 0-6.518-43.872-6.561-44.172Zm-13.81-3.388c-.857.257-1.8.558-2.83.9 0-1.457-.214-3.516-.857-5.231 2.187.343 3.259 2.83 3.688 4.331Zm-4.76 1.458c-1.93.6-4.03 1.244-6.132 1.887.6-2.273 1.715-4.503 3.088-6.004.514-.557 1.243-1.158 2.058-1.5.858 1.672 1.03 4.03.987 5.617Zm-3.945-7.59c.686 0 1.244.128 1.716.471-.772.386-1.544.987-2.23 1.759-1.845 1.972-3.26 5.017-3.817 7.976-1.759.558-3.474 1.072-5.018 1.544 1.03-4.674 4.932-11.622 9.35-11.75Z"/>
            <path fill="#5e8e3e" d="M54.33 17.945c-.214 0-4.46-.085-4.46-.085s-3.56-3.431-3.902-3.817a.689.689 0 0 0-.472-.215v52.707l15.91-3.946s-6.475-43.872-6.518-44.172c-.086-.3-.343-.472-.558-.472Z"/>
            <path fill="#fff" d="m36.662 26.137-1.845 6.904s-2.058-.943-4.503-.772c-3.602.215-3.602 2.488-3.602 3.045.215 3.088 8.32 3.774 8.792 11.022.343 5.703-3.002 9.606-7.891 9.906-5.833.3-9.05-3.13-9.05-3.13l1.244-5.275s3.26 2.444 5.833 2.273c1.672-.086 2.316-1.501 2.23-2.445-.257-4.031-6.862-3.774-7.29-10.421-.344-5.575 3.302-11.193 11.364-11.708 3.13-.214 4.718.6 4.718.6Z"/>
            <g fill="#fff">
            <path d="M82.935 40.846c-1.844-.986-2.787-1.844-2.787-3.002 0-1.458 1.329-2.401 3.388-2.401 2.401 0 4.545.986 4.545.986l1.673-5.146s-1.544-1.201-6.09-1.201c-6.347 0-10.764 3.645-10.764 8.749 0 2.916 2.058 5.103 4.803 6.69 2.23 1.244 3.002 2.144 3.002 3.474 0 1.372-1.115 2.487-3.173 2.487-3.045 0-5.962-1.587-5.962-1.587l-1.8 5.146s2.658 1.802 7.161 1.802c6.519 0 11.236-3.217 11.236-9.006-.043-3.131-2.401-5.361-5.232-6.99ZM108.924 29.996c-3.217 0-5.747 1.544-7.677 3.86l-.086-.043 2.788-14.581h-7.248l-7.076 37.139h7.248l2.402-12.694c.943-4.803 3.43-7.763 5.746-7.763 1.63 0 2.273 1.115 2.273 2.702 0 .987-.086 2.23-.3 3.217l-2.745 14.538h7.248l2.83-15.01c.3-1.587.515-3.474.515-4.76.043-4.117-2.101-6.605-5.918-6.605ZM131.31 29.996c-8.749 0-14.538 7.891-14.538 16.683 0 5.618 3.474 10.164 9.992 10.164 8.577 0 14.367-7.677 14.367-16.683.043-5.189-3.002-10.164-9.82-10.164Zm-3.56 21.314c-2.487 0-3.516-2.101-3.516-4.76 0-4.16 2.144-10.936 6.09-10.936 2.573 0 3.43 2.23 3.43 4.375 0 4.46-2.187 11.321-6.003 11.321ZM159.743 29.996c-4.889 0-7.676 4.332-7.676 4.332h-.086l.429-3.903h-6.433c-.3 2.616-.9 6.647-1.458 9.65l-5.06 26.588h7.247l2.016-10.764h.171s1.501.944 4.246.944c8.534 0 14.11-8.749 14.11-17.583 0-4.89-2.188-9.264-7.506-9.264Zm-6.947 21.4c-1.887 0-3.002-1.072-3.002-1.072l1.2-6.776c.858-4.546 3.217-7.548 5.747-7.548 2.23 0 2.916 2.059 2.916 3.989 0 4.717-2.787 11.407-6.861 11.407ZM177.627 19.575c-2.316 0-4.16 1.844-4.16 4.203 0 2.144 1.372 3.645 3.43 3.645h.086c2.273 0 4.203-1.544 4.246-4.203 0-2.101-1.415-3.645-3.602-3.645ZM167.463 56.328h7.247l4.932-25.731h-7.29l-4.89 25.731ZM198.126 30.554h-5.06l.257-1.201c.428-2.487 1.887-4.675 4.331-4.675 1.287 0 2.316.386 2.316.386l1.415-5.703s-1.244-.644-3.945-.644c-2.573 0-5.147.73-7.12 2.402-2.487 2.101-3.645 5.146-4.202 8.234l-.215 1.2h-3.388l-1.072 5.49h3.388l-3.86 20.328h7.248l3.86-20.328h5.018l1.029-5.49ZM215.623 30.597s-4.546 11.45-6.561 17.711h-.086c-.129-2.015-1.801-17.711-1.801-17.711h-7.634l4.374 23.63c.086.514.043.857-.171 1.2-.858 1.63-2.273 3.217-3.946 4.375-1.372.986-2.916 1.63-4.117 2.058l2.016 6.176c1.458-.3 4.546-1.544 7.119-3.946 3.302-3.087 6.39-7.89 9.52-14.41l8.878-19.083h-7.59Z"/>
            </g>
        </g>
    </g>

    <!-- Left double quote -->
    <g id="leftQuote" xmlns="http://www.w3.org/2000/svg" viewBox="0 0 24 24" fill="currentColor">
        <path fill="none" d="M0 0h24v24H0z"/>
        <path d="M4.583 17.321C3.553 16.227 3 15 3 13.011c0-3.5 2.457-6.637 6.03-8.188l.893 1.378c-3.335 1.804-3.987 4.145-4.247 5.621.537-.278 1.24-.375 1.929-.311 1.804.167 3.226 1.648 3.226 3.489a3.5 3.5 0 0 1-3.5 3.5 3.871 3.871 0 0 1-2.748-1.179zm10 0C13.553 16.227 13 15 13 13.011c0-3.5 2.457-6.637 6.03-8.188l.893 1.378c-3.335 1.804-3.987 4.145-4.247 5.621.537-.278 1.24-.375 1.929-.311 1.804.167 3.226 1.648 3.226 3.489a3.5 3.5 0 0 1-3.5 3.5 3.871 3.871 0 0 1-2.748-1.179z"/>
    </g>

    <!-- Right double quote -->
    <g id="rightQuote" xmlns="http://www.w3.org/2000/svg" viewBox="0 0 24 24" fill="currentColor">
        <path fill="none" d="M0 0h24v24H0z"/>
        <path d="M19.417 6.679C20.447 7.773 21 9 21 10.989c0 3.5-2.457 6.637-6.03 8.188l-.893-1.378c3.335-1.804 3.987-4.145 4.247-5.621-.537.278-1.24.375-1.929.311-1.804-.167-3.226-1.648-3.226-3.489a3.5 3.5 0 0 1 3.5-3.5c1.073 0 2.099.49 2.748 1.179zm-10 0C10.447 7.773 11 9 11 10.989c0 3.5-2.457 6.637-6.03 8.188l-.893-1.378c3.335-1.804 3.987-4.145 4.247-5.621-.537.278-1.24.375-1.929.311C4.591 12.322 3.17 10.841 3.17 9a3.5 3.5 0 0 1 3.5-3.5c1.073 0 2.099.49 2.748 1.179z"/>
    </g>

    <!-- Google Logo -->
    <g id="googleLogo" xmlns="http://www.w3.org/2000/svg" fill="#4285F4" viewBox="0 0 24 24">
        <path d="M12.48 10.92v3.28h7.84c-.24 1.84-.853 3.187-1.787 4.133-1.147 1.147-2.933 2.4-6.053 2.4-4.827 0-8.6-3.893-8.6-8.72s3.773-8.72 8.6-8.72c2.6 0 4.507 1.027 5.907 2.347l2.307-2.307C18.747 1.44 16.133 0 12.48 0 5.867 0 .307 5.387.307 12s5.56 12 12.173 12c3.573 0 6.267-1.173 8.373-3.36 2.16-2.16 2.84-5.213 2.84-7.667 0-.76-.053-1.467-.173-2.053H12.48z"/>
    </g>

    <!-- Facebook Logo -->
    <g id="facebookLogo" xmlns="http://www.w3.org/2000/svg" fill="#1877F2" viewBox="0 0 24 24">
        <path d="M24 12.073c0-6.627-5.373-12-12-12s-12 5.373-12 12c0 5.99 4.388 10.954 10.125 11.854v-8.385H7.078v-3.47h3.047V9.43c0-3.007 1.792-4.669 4.533-4.669 1.312 0 2.686.235 2.686.235v2.953H15.83c-1.491 0-1.956.925-1.956 1.874v2.25h3.328l-.532 3.47h-2.796v8.385C19.612 23.027 24 18.062 24 12.073z"/>
    </g>

    <!-- Tiktok Logo -->
    <g id="tiktokLogo" xmlns="http://www.w3.org/2000/svg" viewBox="0 0 24 24">
        <path d="M12.525.02c1.31-.02 2.61-.01 3.91-.02.08 1.53.63 3.09 1.75 4.17 1.12 1.11 2.7 1.62 4.24 1.79v4.03c-1.44-.05-2.89-.35-4.2-.97-.57-.26-1.1-.59-1.62-.93-.01 2.92.01 5.84-.02 8.75-.08 1.4-.54 2.79-1.35 3.94-1.31 1.92-3.58 3.17-5.91 3.21-1.43.08-2.86-.31-4.08-1.03-2.02-1.19-3.44-3.37-3.65-5.71-.02-.5-.03-1-.01-1.49.18-1.9 1.12-3.72 2.58-4.96 1.66-1.44 3.98-2.13 6.15-1.72.02 1.48-.04 2.96-.04 4.44-.99-.32-2.15-.23-3.02.37-.63.41-1.11 1.04-1.36 1.75-.21.51-.15 1.07-.14 1.61.24 1.64 1.82 3.02 3.5 2.87 1.12-.01 2.19-.66 2.77-1.61.19-.33.4-.67.41-1.06.1-1.79.06-3.57.07-5.36.01-4.03-.01-8.05.02-12.07z"/>
    </g>
</svg>