<svg xmlns="http://www.w3.org/2000/svg">
    <g xmlns="http://www.w3.org/2000/svg" xml:space="preserve" fill-rule="evenodd" stroke-linejoin="round" stroke-miterlimit="2" clip-rule="evenodd" viewBox="0 0 300 101">
        <!-- Color #212529 -->
        <path fill="currentColor" fill-rule="nonzero" d="M177.631 46.644c.183-.03.37-.056.558-.083 1.393-.197 2.973-.42 3.71-1.7.35-.608.402-1.347.145-2.083a3.555 3.555 0 0 0-1.993-2.082c-1.583-.622-3.364-.203-4.74.232-3.12.986-8.855 3.742-10.552 7.816-.697 1.674-.613 3.373.25 5.049.823 1.6 2.158 2.842 3.45 4.041l.482.45c1.409 1.323 2.78 2.796 3.27 4.598.456 1.684.15 3.68-.911 5.93-1.31 2.779-3.496 5.006-5.253 6.635-1.994 1.848-3.794 2.691-5.207 2.442-1.315-.234-1.88-1.315-1.912-1.377-.016-.029-1.548-2.911 4.616-7.528.213-.16.432-.315.65-.47.769-.545 1.563-1.109 2.148-1.891.73-.98 1.138-2.56.308-3.715-.751-1.044-2.164-1.249-3.23-.988-1.114.271-2.035.961-2.884 1.645-1.208.972-1.788 1.906-2.67 2.827a2.67 2.67 0 0 0-.176.107c-.297.2-.615.398-.965.6-.616.334-1.295.652-2.129.995-.406.152-.83.287-1.284.408-.354.08-.725.146-1.117.2a7.558 7.558 0 0 1-.606.028 12.041 12.041 0 0 1-.9-.06 9.672 9.672 0 0 1-.653-.145 12.598 12.598 0 0 1-.915-.32 9.159 9.159 0 0 1-.32-.162c-.164-.106-1.063-.673-1.23-.797-.186-.154 1.225-1.033 1.702-1.542a66.463 66.463 0 0 0 5.191-6.237c1.308-1.792 2.952-4.187 4.079-6.82.562-1.312.88-2.675.92-3.941.013-.435.014-1.082-.131-1.666a4.358 4.358 0 0 0-.197-.71c-.163-.443-.372-.953-.688-1.384a5.972 5.972 0 0 0-1.166-1.204c-1.306-1.018-3.289-1.32-5.05-.775-.726.225-1.45.59-2.15 1.082-.73.512-1.29.995-1.767 1.519a20.868 20.868 0 0 0-2.372 3.214c-1.432 2.36-2.538 4.972-3.285 7.761-.733 2.736-1.041 7.88-1.041 7.88-4.061 4.573-10.008 6.761-10.015 6.763.02-.053.823-1.814 1.207-2.616.405-.847.825-1.724 1.215-2.598.795-1.784 1.696-3.805 2.3-5.89.347-1.192.69-2.464.742-3.748.045-1.052-.046-1.884-.285-2.617a5.929 5.929 0 0 0-1.426-2.342c-1.176-1.172-3.022-1.542-4.94-.986-.304.088-.61.195-.926.323.335-1.887.242-3.337-.295-4.563-.451-1.031-1.239-1.887-2.16-2.349-1-.501-2.064-.678-3.073-.513-.874.144-1.749.495-2.663 1.071-.098-.806-.387-1.5-.863-2.065-.775-.924-2.929-1.912-5.183.358-6.876 6.925-11.373 8.324-11.373 8.324-.32-2.705-1.927-6.127-4.255-7.561-2.513-1.548-5.745-1.756-8.435-.542-2.112.952-3.71 2.647-4.994 4.18-1.339 1.595-2.526 3.41-3.631 5.548-1.877 3.63-3.006 7.286-3.357 10.865-.232 2.365-.081 4.37.46 6.127.667 2.16 1.953 3.927 3.622 4.976 1.324.831 2.923 1.228 4.592 1.18a10.2 10.2 0 0 0 3.472-.736c2.272-.91 4.386-2.546 6.391-5.066 3.588-4.51 5.647-11.866 5.647-11.866.073-.347.142-.674.325-.913.124-.163.307-.292.508-.434 2.439-1.726 5.41-2.259 10.174-6.865-.377.364-.41.964-.615 1.438l-.178.413h-.001a169.034 169.034 0 0 1-2.949 6.4 350.283 350.283 0 0 1-3.073 6.157l-.19.373a331.387 331.387 0 0 1-2.342 4.538l-.075.142c-.114.213-.23.434-.334.662-.38.835-.456 1.536-.246 2.273.32 1.129 1.467 1.923 2.666 1.87.8-.04 1.57-.435 2.06-1.054.152-.192.342-.433.507-.681.322-.484.617-.984.84-1.364.478-.818.921-1.65 1.409-2.576.506-.957 1.017-1.912 1.527-2.867.67-1.254 1.341-2.508 2.002-3.767.24-.457.479-.915.717-1.374.873-1.675 1.775-3.409 2.736-5.063a41.44 41.44 0 0 1 2.702-3.994c.444-.562.923-1.103 1.414-1.6.214-.2.44-.392.68-.58.222-.16.805-.567.65.165-.09.524-.21 1.067-.356 1.606-.648 2.198-1.527 4.35-2.301 6.165v.002l-.015.03c-.471 1.09-.972 2.191-1.456 3.256-.188.414-.377.828-.563 1.243l-.285.63c-.237.522-.472 1.045-.707 1.567-.169.375-.335.75-.495 1.128-.325.77-.386 1.469-.183 2.134.349 1.144 1.478 1.927 2.665 1.866.95-.051 1.778-.587 2.395-1.55.23-.357.454-.748.727-1.264.42-.796.842-1.617 1.256-2.439.188-.373.373-.748.558-1.123.576-1.166 1.173-2.37 1.829-3.506.247-.409.487-.77.727-1.092.128-.156 2.831-3.492 3.552-3.011.722.481-.187 2.644-.346 3.225-.362 1.224-.845 2.533-1.52 4.118-.665 1.527-1.389 3.058-2.09 4.539l-.571 1.21c-.1.215-.2.428-.295.642l-.098.225a2.89 2.89 0 0 0-.07.16c-.083.195-.17.405-.242.626-.288.888-.429 1.655-.444 2.415-.024 1.164.35 2.27 1.029 3.034a4.31 4.31 0 0 0 2.36 1.381 6.217 6.217 0 0 0 1.495.13c1.23-.037 2.479-.394 3.928-1.123 2.524-1.273 8.584-5.907 8.584-5.907s1.475 2.069 1.85 2.36c1.046.81 2.367 1.398 3.924 1.747 1.421.318 2.91.35 4.426.093.02-.004.042-.01.063-.012-.233 1.121-.748 2.236-.63 3.306.215 1.956 1.025 3.655 2.28 4.784 1.546 1.388 3.522 1.73 4.905 1.774a10.922 10.922 0 0 0 1.424-.051c5.144-.525 9.141-4.068 11.588-6.95 2.584-3.043 4.225-6.172 4.877-9.3.775-3.711.053-7.534-1.93-10.225-.802-1.087-1.805-2.012-2.775-2.905-.954-.878-1.94-1.787-2.708-2.834-.079-.107-.163-.23-.165-.324-.002-.105.092-.239.18-.355a10.926 10.926 0 0 1 6.95-4.16Zm-94.447-7.667.043-.106c.51-1.277 1.039-2.598 1.578-3.894.256-.616.518-1.228.785-1.837l.05-.11c.258-.588.502-1.142.616-1.793.148-.83-.135-1.806-.737-2.547a3.423 3.423 0 0 0-2.248-1.234 3.426 3.426 0 0 0-2.538.74c-.458.371-.801.86-1.021 1.45l-.109.29-.012-.004c-.119.304-.258.602-.403.914-.098.209-.192.413-.281.618-.347.806-.679 1.612-.956 2.293-.318.78-.631 1.563-.944 2.345-.327.818-.654 1.635-.987 2.45a1056.187 1056.187 0 0 1-4.299 10.33c-3.768-1.796-9.78-4.485-12.093-5.267 0 0 4.467-11.74 7.752-20.406.578-1.525 1.162-3.12.726-4.774-.256-.972-.901-1.924-1.887-2.117-2.697-.527-4.056 2.024-5.064 4.243-5.18 11.397-8.484 21.2-8.484 21.2s-12.487-4.758-26.42 6.662c-7.115 5.833-9.973 15.222-8.282 24.261.703 3.755 6.069 9.57 12.25 9.57 6.183 0 9.496-1.328 13.303-6.678 8.284-11.64 7.218-13.7 13.377-25.716 2.257.928 8.4 3.688 12.17 5.329l-1.911 4.559a6272.77 6272.77 0 0 1-4.341 10.34c-.335.793-.325 1.69.028 2.527a3.461 3.461 0 0 0 1.903 1.881 3.458 3.458 0 0 0 2.603-.054c.81-.356 1.433-1.004 1.8-1.875.994-2.36 1.985-4.723 2.976-7.084l1.14-2.72c.884-2.106 1.77-4.21 2.657-6.316l.459-1.093a3.3 3.3 0 0 0 .48-1.142c1.021-2.427 2.043-4.855 3.059-7.284a551.946 551.946 0 0 0 3.262-7.95Zm196.87-9.498c-.95 0-1.66.473-2.24 1.489l-.018.03c-.499.936-1.003 2.314-1.587 3.91-.305.837-.621 1.701-.957 2.554-1.055 2.646-.573 1.306-3.028 7.07l-.155.365-.37-.094c-.78-.2-1.606-.2-2.27-.2-8.615 0-14.683 6.795-17.534 10.846a28.82 28.82 0 0 0-1.008 1.545l-.102.12-.264.309c-8.051 9.549-10.714 11.286-11.584 11.47l-.274.06-.173-.23c-.066-.086-.279-.418-.279-1.057 0-1.346.577-3.77 1.506-6.325l.039-.081c2.792-4.757 5.48-10.669 6.3-12.776l.025-.075c.01-.03.027-.073.045-.116.101-.245.24-.586.24-1.025 0-1.16-1.048-1.82-1.495-2.103l-.078-.044c-.065-.034-1.99-1.028-5.077-1.028-4.88 0-10.2 2.647-14.596 7.261a27.586 27.586 0 0 0-4.239 5.776c-1.401 2.96-2.065 6.274-2.362 8.277-1.562.758-2.522.968-2.798 1.074-.447.157-.914.297-1.416.423-.39.084-.8.154-1.233.212-.235.021-.46.034-.67.037-.39-.008-.714-.025-.996-.05a11.104 11.104 0 0 1-.722-.138c-.405-.11-.734-.21-1.017-.309-.127-.054-.253-.11-.355-.159a9.604 9.604 0 0 1-.555-.34c-.207-.151-.407-.309-.56-.438v-.018a86.12 86.12 0 0 0 1.612-1.548c2.112-2.082 4.022-4.201 5.676-6.297 1.427-1.807 3.22-4.22 4.439-6.867.607-1.318.945-2.685.976-3.951.01-.435.004-1.083-.163-1.664a4.022 4.022 0 0 0-.226-.708c-.183-.44-.42-.948-.774-1.376a6.297 6.297 0 0 0-1.303-1.19c-1.455-1.003-3.65-1.283-5.593-.717-.8.234-1.596.607-2.366 1.107-.8.52-1.416 1.01-1.938 1.54a21.18 21.18 0 0 0-2.59 3.241 28.379 28.379 0 0 0-3.55 7.798c-.782 2.746-1.141 5.4-1.07 7.893.015.476.046.912.098 1.328a61.155 61.155 0 0 1-3.75 3.03c-.628.414-3.264 2.278-6.118 3.045-.252.046-.503.087-.732.12-.28.016-.534.022-.749.02a10.854 10.854 0 0 1-.397-.043c-.12-.027-.763-.155-.855-.179-.04-.015-.08-.031-.094-.035a7.815 7.815 0 0 1-.195-.106l-.064-.044a1.531 1.531 0 0 0-.065-.057 5.905 5.905 0 0 1-.151-.185c-.043-.069-.083-.137-.112-.186-.027-.058-.053-.117-.068-.153-.064-.19-.122-.38-.17-.544-.056-.3-.098-.6-.129-.886-.004-.253-.002-.504.003-.733.03-.304.067-.605.106-.89.144-.717.33-1.456.568-2.248.752-2.258 1.685-4.447 2.654-6.68a569.78 569.78 0 0 1 2.993-6.745c1.946-4.324 3.147-6.946 5.787-12.649l.007-.004c1.658.042 3.316.106 4.973.17a377.416 377.416 0 0 0 5.055.17l.115-.001c.778-.02 1.411-.25 1.94-.702.58-.497.953-1.22 1.023-1.985a2.978 2.978 0 0 0-.703-2.19c-.524-.614-1.292-1.006-2.004-1.024a374.628 374.628 0 0 1-4.987-.17 919.45 919.45 0 0 0-2.705-.1 278.873 278.873 0 0 1 2.241-4.631c.445-.9.89-1.799 1.342-2.695.048-.095.103-.199.162-.312.413-.784 1.103-2.095 1.508-4.197.17-.875-.34-1.755-1.33-2.295-.814-.445-1.817-.487-2.616-.11a3.138 3.138 0 0 0-1.328 1.138c-.67 1.04-1.224 2.169-1.76 3.26l-.366.744a445.054 445.054 0 0 0-1.866 3.78c-.304.625-.607 1.251-.904 1.88l-.737 1.575c-.098.188-.186.383-.274.579-.041.092-.082.183-.125.275h.001l-.263.565-.085.182-.056.121c-1.315-.013-2.613-.02-3.87-.024-2.59-.01-5.603-.013-8.606.061a2.868 2.868 0 0 0-2.028.928 3 3 0 0 0-.818 2.15c.065 1.607 1.44 2.883 3.073 2.84 2.967-.072 6.085-.096 9.522-.072l-1.916 4.152s-2.637 5.79-4.17 9.228l-.208.468c-1.09 2.44-2.216 4.965-3.225 7.49a43.422 43.422 0 0 0-1.444 4.257c-.5 1.773-.69 3.48-.561 5.078.073.917.228 1.7.472 2.394.302.859.707 1.845 1.427 2.647.81.903 1.663 1.533 2.608 1.927 1.03.428 2.18.646 3.42.646h.002c1.182 0 2.45-.19 3.65-.594 2.238-.753 5.97-3.01 5.97-3.01l-.002-.004c1.683-1.013 3.102-2.107 4.315-3.114l.213-.176c.488.454 1.009.828 1.426 1.114 1.167.8 2.633 1.37 4.359 1.703 1.747.336 5.905-.014 9.614-1.35 1.14 2.073 3.12 3.251 5.653 3.251 2.63 0 5.305-1.293 7.95-3.844l.49-.473.244.652c.85 2.295 2.766 3.665 5.123 3.665 2.167 0 4.66-1.66 8.608-5.728l.564-.581.197.804c.808 3.292 3.342 5.42 6.455 5.42 2.01 0 5.228-.805 9.156-4.646l.587-.574.17.823c.159.77.423 1.496.765 2.099.808 1.427 2.063 2.213 3.532 2.213 3.506 0 4.409-1.633 7.435-5.076.415-.473.742-1.296.742-1.946 0-1.566-.962-2.58-2.452-2.58-.758 0-1.475.473-1.86.878l-.375.432c-.978 1.13-1.714 1.627-2.217 1.838a.56.56 0 0 1-.77-.59c.308-2.492 1.682-7.316 4.762-14.233 3.185-6.929 2.466-5.101 3.851-8.61.202-.514.395-1.003.585-1.481l1.036-2.683c.955-2.168 1.926-4.454 2.616-6.633l.046-.139c.134-.4.244-.757.244-1.102 0-1.247-.985-2.581-2.451-2.581ZM49.924 48.13c-2.775 6.94-5.591 13.924-9.697 20.168-1.46 2.22-3.146 4.398-5.468 5.688s-5.418 1.499-7.525-.119c-1.86-1.428-2.546-3.914-2.728-6.252-1.01-12.974 12.671-22.816 25.505-19.702l-.087.217Zm46.727 13.08a27.995 27.995 0 0 1-1.285 2.564 33.312 33.312 0 0 1-1.76 2.55 29.093 29.093 0 0 1-1.298 1.463c-.412.389-.82.744-1.23 1.075-.296.209-.595.408-.891.597-.281.15-.555.289-.812.413a10.74 10.74 0 0 1-.828.279c-.193.04-.386.073-.56.098-.147.01-.293.016-.417.019a7.43 7.43 0 0 1-.333-.027 8.647 8.647 0 0 1-.323-.07 7.459 7.459 0 0 1-.345-.125c-.08-.038-.16-.08-.221-.112a8.098 8.098 0 0 1-.36-.239 10.727 10.727 0 0 1-.23-.205 10.943 10.943 0 0 1-.269-.305 7.572 7.572 0 0 1-.285-.433 8.82 8.82 0 0 1-.187-.393 9.875 9.875 0 0 1-.22-.716 21.61 21.61 0 0 1-.132-.807c-.037-.465-.058-.93-.064-1.406.026-.715.085-1.427.176-2.162.186-1.13.435-2.256.762-3.438a36.407 36.407 0 0 1 1.083-3.009c.41-.916.837-1.779 1.297-2.618.595 1.28 1.418 2.384 2.386 3.198.618.52 1.254.924 1.891 1.202.819.354 1.664.58 2.658.713.793.104 1.61.119 2.482.036a36.68 36.68 0 0 1-.685 1.859Zm138.695-2.375-.055.097c-2.769 4.967-7.043 9.977-10.351 9.977-1.316 0-1.667-1.637-1.667-2.604 0-3.333 1.983-7.574 5.175-11.069 3.212-3.518 7.068-5.661 10.582-5.879l.83-.051-.404.765c-1.763 3.33-3.098 6.177-4.081 8.702l-.03.062Zm33.97-7.625c-1.821 4.035-3.646 7.408-5.578 10.312-2.16 3.365-5.839 7.302-9.086 7.302-1.29 0-1.747-1.402-1.747-2.603 0-1.645.942-4.626 3.047-7.58 1.829-2.567 6.778-8.564 13.213-8.788l.72-.025-.569 1.382Zm-121.405 6.348a34.581 34.581 0 0 1 1.179-3.29c.374-.84.806-1.684 1.28-2.504.415-.677.824-1.281 1.243-1.837.28-.346.54-.647.782-.903.153-.144.302-.273.439-.384.205-.147.42-.289.617-.41.084-.044.17-.086.256-.126l.14-.045.1-.017.118-.005h.007l.017.038.037.146.009.19c-.011.2-.03.405-.054.596a9.86 9.86 0 0 1-.144.69 12.75 12.75 0 0 1-.397 1.09c-.316.69-.696 1.406-1.23 2.32-.885 1.457-1.922 2.945-3.263 4.684a63.617 63.617 0 0 1-1.679 2.04c.15-.756.332-1.518.543-2.273Zm60.306-1.535c.358-1.11.787-2.224 1.27-3.303.405-.844.873-1.693 1.389-2.518.452-.683.898-1.291 1.356-1.853.305-.349.59-.652.854-.911.168-.146.332-.277.482-.39.226-.148.461-.292.678-.416.093-.045.187-.088.282-.13l.155-.046.109-.018.13-.006h.009l.019.037.043.146.011.19c-.01.2-.028.405-.052.596a9.32 9.32 0 0 1-.153.693c-.12.359-.261.72-.428 1.094-.342.693-.754 1.414-1.336 2.334-.962 1.468-2.094 2.968-3.56 4.721-.58.68-1.194 1.37-1.834 2.06.158-.758.352-1.522.576-2.28ZM98.487 53.52a7.119 7.119 0 0 1-2.51.37c-.611-.022-1.105-.123-1.508-.311-.614-.287-1.146-.843-1.5-1.566-.293-.601-.474-1.31-.568-2.232a1.061 1.061 0 0 1 .164-.685c.333-.542 1.096-.93 1.64-1.174.401-.18.802-.276 1.18-.287.266-.008.52.027.753.104.372.124.732.369 1.07.727.57.602.979 1.415 1.182 2.35.173.793.205 1.677.097 2.704Z"/>
    </g>
</svg>